<svg width="29" height="29" viewBox="0 0 29 29" fill="none" xmlns="http://www.w3.org/2000/svg">
    <path fill-rule="evenodd" clip-rule="evenodd" d="M17.2804 2.39746H4.79492V26.3753H17.51L14.7697 23.9775H7.19272V4.79526H16.2863L21.5794 10.0883V18.9053L23.9772 15.7888V9.09417L17.2804 2.39746ZM24.5565 16.7841L26.3749 18.1499L19.8942 26.3753L14.3861 21.6697L15.8968 19.984L19.5648 23.1184L24.5565 16.7841ZM14.7367 10.7938L15.8947 11.1041L14.033 18.0523L12.8749 17.7421L14.7367 10.7938ZM12.2367 12.1115L11.3889 11.2638L8.26745 14.3852L11.3889 17.5065L12.2367 16.6588L9.96345 14.3852L12.2367 12.1115ZM16.4113 12.1115L17.2591 11.2637L20.3805 14.385L17.2591 17.5065L16.4113 16.6588L18.6846 14.385L16.4113 12.1115Z" fill="#566F9E"/>
</svg>
