<svg width="29" height="29" viewBox="0 0 29 29" fill="none" xmlns="http://www.w3.org/2000/svg">
<path d="M4.83366 4.833C4.83366 4.19206 5.08827 3.57737 5.54148 3.12416C5.9947 2.67095 6.60938 2.41634 7.25032 2.41634H16.917C17.2374 2.41641 17.5447 2.54376 17.7712 2.77038L23.8129 8.81203C24.0395 9.03858 24.1669 9.34587 24.1669 9.66631V24.1663C24.1669 24.8072 23.9123 25.4219 23.4591 25.8751C23.0059 26.3283 22.3912 26.5829 21.7503 26.5829H7.25032C6.60938 26.5829 5.9947 26.3283 5.54148 25.8751C5.08827 25.4219 4.83366 24.8072 4.83366 24.1663V4.833ZM21.25 9.66631L16.917 5.33325V9.66631H21.25ZM14.5003 4.833H7.25032V24.1663H21.7503V12.083H15.7086C15.3882 12.083 15.0808 11.9557 14.8542 11.7291C14.6276 11.5025 14.5003 11.1951 14.5003 10.8746V4.833ZM18.9796 14.8537C19.2061 15.0803 19.3334 15.3876 19.3334 15.708C19.3334 16.0284 19.2061 16.3357 18.9796 16.5622L14.1463 21.3956C13.9197 21.6221 13.6124 21.7493 13.292 21.7493C12.9716 21.7493 12.6643 21.6221 12.4377 21.3956L10.021 18.9789C9.90561 18.8674 9.81356 18.7341 9.75023 18.5867C9.6869 18.4393 9.65357 18.2807 9.65218 18.1203C9.65078 17.9598 9.68135 17.8007 9.74211 17.6522C9.80287 17.5037 9.89259 17.3688 10.006 17.2554C10.1195 17.1419 10.2544 17.0522 10.4029 16.9914C10.5514 16.9307 10.7105 16.9001 10.871 16.9015C11.0314 16.9029 11.19 16.9362 11.3374 16.9995C11.4848 17.0629 11.6181 17.1549 11.7296 17.2703L13.292 18.8327L17.271 14.8537C17.4976 14.6271 17.8049 14.4999 18.1253 14.4999C18.4457 14.4999 18.753 14.6271 18.9796 14.8537Z" fill="#566F9E"/>
</svg>
