<svg width="29" height="29" viewBox="0 0 29 29" fill="none" xmlns="http://www.w3.org/2000/svg">
<path d="M26.5839 14.5V24.6608C26.5839 25.3889 26.0432 25.9791 25.3756 25.9791H3.62565C2.95805 25.9791 2.41732 25.3889 2.41732 24.6608V14.5L14.5006 22.3541L26.5839 14.5Z" stroke="#566F9E" stroke-width="2.39778" stroke-linejoin="round"/>
<path d="M2.41732 14.3696L8.45897 10.2057M26.5839 14.3696L20.5423 10.2057" stroke="#566F9E" stroke-width="2.39778" stroke-linecap="round" stroke-linejoin="round"/>
<path d="M20.5439 3.02067H8.46063V17.7713C8.46062 17.9727 8.5109 18.1708 8.60692 18.3477C8.70293 18.5247 8.84163 18.6748 9.01042 18.7845L13.8437 21.9262C14.0397 22.0536 14.2685 22.1214 14.5023 22.1214C14.7361 22.1214 14.9648 22.0536 15.1608 21.9262L19.9941 18.7845C20.1629 18.6748 20.3016 18.5247 20.3976 18.3477C20.4936 18.1708 20.5439 17.9727 20.5439 17.7713V3.02067Z" stroke="#566F9E" stroke-width="2.39778" stroke-linejoin="round"/>
<path d="M12.0827 7.85433H14.4993M12.0827 11.4793H16.916" stroke="#566F9E" stroke-width="2.39778" stroke-linecap="round" stroke-linejoin="round"/>
</svg>
