<svg width="1312" height="117" viewBox="0 0 1312 117" fill="none" xmlns="http://www.w3.org/2000/svg">
<circle cx="48.8362" cy="42.5223" r="37.5197" fill="#32ADE6"/>
<path d="M4.1428 105.219H0.840285L0.820744 104.193H3.68358C4.25679 104.193 4.74208 104.092 5.13942 103.891C5.54328 103.689 5.84943 103.389 6.05787 102.992C6.27283 102.594 6.38031 102.106 6.38031 101.526C6.38031 100.927 6.27608 100.432 6.06764 100.041C5.86571 99.65 5.55631 99.3602 5.13942 99.1713C4.72905 98.9758 4.2112 98.8781 3.58587 98.8781H1.11387V112.059H0V97.8327H3.58587C4.19166 97.8327 4.73556 97.9076 5.21759 98.0574C5.70612 98.2007 6.11975 98.4254 6.45847 98.7316C6.79719 99.0312 7.05449 99.4155 7.23036 99.8845C7.41275 100.354 7.50394 100.91 7.50394 101.555C7.50394 102.142 7.38995 102.669 7.16197 103.138C6.93398 103.607 6.6148 103.991 6.20443 104.291C5.80057 104.591 5.31855 104.776 4.75836 104.848L4.1428 105.219ZM4.06464 112.059H0.459226L1.05524 111.013H4.06464C4.63785 111.013 5.12639 110.896 5.53025 110.662C5.93411 110.421 6.24352 110.082 6.45847 109.646C6.67994 109.203 6.79068 108.675 6.79068 108.063C6.79068 107.529 6.69623 107.046 6.50733 106.617C6.31842 106.187 6.02856 105.848 5.63773 105.6C5.2469 105.346 4.74859 105.219 4.1428 105.219H2.01278L2.03232 104.193H5.0124L5.22736 104.565C5.77452 104.63 6.24677 104.825 6.64412 105.151C7.04797 105.477 7.36064 105.89 7.58211 106.392C7.80358 106.893 7.91432 107.444 7.91432 108.043C7.91432 108.909 7.75147 109.642 7.42578 110.242C7.10009 110.834 6.65063 111.287 6.07741 111.6C5.50419 111.906 4.83327 112.059 4.06464 112.059ZM11.3243 105.317H14.1774C14.8809 105.317 15.4736 105.464 15.9557 105.757C16.4377 106.043 16.8057 106.441 17.0597 106.949C17.3138 107.45 17.4408 108.024 17.4408 108.668C17.4408 109.15 17.3659 109.597 17.2161 110.007C17.0728 110.417 16.8643 110.779 16.5907 111.092C16.3172 111.398 15.9784 111.635 15.5746 111.805C15.1707 111.974 14.705 112.059 14.1774 112.059H10.6013V101.487H11.6858V111.043H14.1774C14.705 111.043 15.1251 110.932 15.4378 110.711C15.757 110.489 15.9882 110.199 16.1315 109.841C16.2748 109.476 16.3465 109.092 16.3465 108.688C16.3465 108.304 16.2748 107.932 16.1315 107.574C15.9882 107.209 15.757 106.913 15.4378 106.685C15.1251 106.45 14.705 106.333 14.1774 106.333H11.3243V105.317ZM20.4795 101.487V112.059H19.3852V101.487H20.4795ZM29.3416 96.8849H30.26C30.26 97.3799 30.1851 97.7903 30.0353 98.116C29.892 98.4417 29.6868 98.7055 29.4198 98.9074C29.1527 99.1094 28.8433 99.269 28.4915 99.3862C28.1398 99.4969 27.7587 99.5914 27.3484 99.6696C26.8403 99.7673 26.3778 99.9692 25.9609 100.275C25.544 100.575 25.1858 100.992 24.8861 101.526C24.5865 102.054 24.3618 102.705 24.2119 103.48C24.0621 104.255 24.0068 105.161 24.0458 106.196V107.115H23.1274V106.196C23.1274 105.05 23.2186 104.034 23.401 103.148C23.5899 102.262 23.8602 101.503 24.2119 100.871C24.5637 100.24 24.9871 99.7347 25.4821 99.3569C25.9772 98.9791 26.5244 98.7316 27.1236 98.6143C27.6512 98.5101 28.0779 98.3863 28.4036 98.243C28.7293 98.0932 28.967 97.9076 29.1169 97.6861C29.2667 97.4646 29.3416 97.1976 29.3416 96.8849ZM27.2311 102.181C27.8043 102.181 28.3222 102.298 28.7847 102.532C29.2471 102.767 29.6412 103.096 29.9669 103.519C30.2991 103.943 30.5532 104.444 30.729 105.024C30.9049 105.604 30.9928 106.236 30.9928 106.919V107.232C30.9928 107.955 30.9017 108.623 30.7193 109.235C30.5369 109.847 30.2731 110.382 29.9278 110.838C29.5891 111.287 29.1755 111.635 28.6869 111.883C28.2049 112.131 27.6643 112.254 27.065 112.254C26.4592 112.254 25.9153 112.131 25.4333 111.883C24.9513 111.635 24.5376 111.287 24.1924 110.838C23.8537 110.382 23.5899 109.847 23.401 109.235C23.2186 108.623 23.1274 107.955 23.1274 107.232V106.919C23.1274 106.731 23.1469 106.548 23.186 106.372C23.2251 106.19 23.2707 106.011 23.3228 105.835C23.3814 105.653 23.4401 105.47 23.4987 105.288C23.6941 104.702 23.9644 104.174 24.3096 103.705C24.6614 103.236 25.0815 102.865 25.5701 102.591C26.0586 102.317 26.6123 102.181 27.2311 102.181ZM27.0552 103.187C26.4234 103.187 25.899 103.363 25.4821 103.715C25.0653 104.06 24.7493 104.516 24.5344 105.083C24.3194 105.649 24.2119 106.262 24.2119 106.919V107.232C24.2119 107.766 24.2706 108.278 24.3878 108.766C24.5116 109.248 24.6907 109.675 24.9252 110.046C25.1662 110.417 25.4659 110.711 25.8241 110.925C26.1824 111.14 26.596 111.248 27.065 111.248C27.534 111.248 27.9444 111.14 28.2961 110.925C28.6544 110.711 28.9508 110.417 29.1853 110.046C29.4263 109.675 29.6054 109.248 29.7227 108.766C29.8464 108.278 29.9083 107.766 29.9083 107.232V106.919C29.9083 106.424 29.8464 105.955 29.7227 105.512C29.6054 105.063 29.4263 104.666 29.1853 104.32C28.9508 103.969 28.6544 103.692 28.2961 103.49C27.9379 103.288 27.5242 103.187 27.0552 103.187ZM32.8298 107.33V106.226C32.8298 105.425 32.9209 104.718 33.1033 104.105C33.2922 103.493 33.556 102.979 33.8948 102.562C34.24 102.145 34.6471 101.829 35.1161 101.614C35.5916 101.399 36.1127 101.292 36.6794 101.292C37.2657 101.292 37.7933 101.399 38.2623 101.614C38.7378 101.829 39.1449 102.145 39.4836 102.562C39.8289 102.979 40.0927 103.493 40.2751 104.105C40.464 104.718 40.5584 105.425 40.5584 106.226V107.33C40.5584 108.125 40.464 108.828 40.2751 109.44C40.0927 110.053 39.8289 110.57 39.4836 110.994C39.1384 111.411 38.728 111.727 38.2525 111.942C37.7835 112.157 37.2657 112.264 36.699 112.264C36.1258 112.264 35.6014 112.157 35.1259 111.942C34.6569 111.727 34.2498 111.411 33.9045 110.994C33.5593 110.57 33.2922 110.053 33.1033 109.44C32.9209 108.828 32.8298 108.125 32.8298 107.33ZM33.9143 106.226V107.33C33.9143 107.929 33.9762 108.47 34.1 108.952C34.2237 109.434 34.4028 109.847 34.6373 110.193C34.8784 110.531 35.1715 110.792 35.5167 110.974C35.8619 111.157 36.256 111.248 36.699 111.248C37.168 111.248 37.5751 111.157 37.9203 110.974C38.2721 110.792 38.5619 110.531 38.7899 110.193C39.0244 109.847 39.197 109.434 39.3078 108.952C39.425 108.47 39.4836 107.929 39.4836 107.33V106.226C39.4836 105.626 39.4218 105.089 39.298 104.614C39.1742 104.132 38.9886 103.721 38.7411 103.382C38.5 103.037 38.2069 102.773 37.8617 102.591C37.523 102.402 37.1289 102.308 36.6794 102.308C36.2495 102.308 35.8619 102.402 35.5167 102.591C35.1715 102.773 34.8784 103.037 34.6373 103.382C34.4028 103.721 34.2237 104.132 34.1 104.614C33.9762 105.089 33.9143 105.626 33.9143 106.226ZM44.1443 103.519V116.124H43.0597V101.487H44.0661L44.1443 103.519ZM50.2706 106.284V107.271C50.2706 108.125 50.1956 108.864 50.0458 109.489C49.896 110.115 49.6745 110.632 49.3814 111.043C49.0883 111.453 48.7333 111.759 48.3164 111.961C47.8995 112.163 47.4208 112.264 46.8801 112.264C46.3525 112.264 45.8867 112.173 45.4829 111.99C45.0855 111.808 44.7436 111.551 44.457 111.219C44.1703 110.88 43.9424 110.486 43.773 110.036C43.6036 109.58 43.4864 109.079 43.4213 108.532V105.278C43.4994 104.679 43.6232 104.135 43.7925 103.646C43.9684 103.158 44.1964 102.738 44.4765 102.386C44.7631 102.034 45.1018 101.764 45.4927 101.575C45.89 101.386 46.346 101.292 46.8606 101.292C47.4012 101.292 47.8832 101.386 48.3066 101.575C48.73 101.764 49.0883 102.057 49.3814 102.454C49.6811 102.852 49.9025 103.369 50.0458 104.008C50.1956 104.64 50.2706 105.398 50.2706 106.284ZM49.1958 107.271V106.284C49.1958 105.6 49.1437 105.014 49.0394 104.526C48.9352 104.031 48.7756 103.62 48.5607 103.295C48.3522 102.969 48.0819 102.728 47.7497 102.571C47.424 102.409 47.0397 102.327 46.5968 102.327C46.1408 102.327 45.7532 102.412 45.434 102.581C45.1149 102.744 44.8478 102.962 44.6328 103.236C44.4179 103.509 44.2485 103.809 44.1247 104.135C44.001 104.454 43.9098 104.77 43.8512 105.083V108.786C43.9554 109.222 44.1182 109.629 44.3397 110.007C44.5612 110.378 44.8576 110.678 45.2288 110.906C45.6001 111.134 46.0626 111.248 46.6163 111.248C47.0592 111.248 47.4403 111.17 47.7595 111.013C48.0852 110.851 48.3522 110.606 48.5607 110.281C48.7756 109.948 48.9352 109.535 49.0394 109.04C49.1437 108.545 49.1958 107.955 49.1958 107.271ZM60.5299 101.487V112.059H59.4453V101.487H60.5299ZM63.7151 101.487V102.493H56.3675V101.487H63.7151ZM68.3758 112.264C67.7895 112.264 67.2521 112.17 66.7636 111.981C66.2751 111.785 65.8517 111.492 65.4934 111.101C65.1417 110.704 64.8681 110.206 64.6727 109.606C64.4772 109.001 64.3795 108.287 64.3795 107.467V106.255C64.3795 105.376 64.4805 104.623 64.6824 103.998C64.8909 103.366 65.1742 102.852 65.5325 102.454C65.8907 102.057 66.2979 101.764 66.7538 101.575C67.2098 101.386 67.6886 101.292 68.1901 101.292C68.7699 101.292 69.2779 101.386 69.7144 101.575C70.1573 101.764 70.5286 102.05 70.8282 102.435C71.1279 102.819 71.3526 103.304 71.5024 103.891C71.6588 104.47 71.7369 105.157 71.7369 105.952V106.861H65.0342V105.845H70.6524V105.571C70.6393 104.881 70.5416 104.294 70.3592 103.812C70.1834 103.324 69.913 102.953 69.5483 102.698C69.19 102.438 68.7373 102.308 68.1901 102.308C67.7928 102.308 67.4248 102.383 67.086 102.532C66.7538 102.676 66.464 102.904 66.2164 103.216C65.9754 103.529 65.7898 103.936 65.6595 104.438C65.5292 104.939 65.4641 105.545 65.4641 106.255V107.467C65.4641 108.118 65.5325 108.678 65.6693 109.147C65.8126 109.616 66.0145 110.007 66.2751 110.32C66.5421 110.632 66.8581 110.867 67.2228 111.023C67.5876 111.173 67.9915 111.248 68.4344 111.248C68.9685 111.248 69.4408 111.153 69.8512 110.965C70.268 110.776 70.6361 110.492 70.9553 110.115L71.522 110.838C71.3396 111.098 71.1051 111.336 70.8185 111.551C70.5319 111.766 70.1899 111.938 69.7925 112.069C69.3952 112.199 68.9229 112.264 68.3758 112.264ZM79.0161 110.437L82.4457 101.487H83.5205L79.3972 112.059H78.6253L74.5216 101.487H75.5866L79.0161 110.437ZM75.2544 101.487V112.059H74.1698V101.487H75.2544ZM82.6997 112.059V101.487H83.7843V112.059H82.6997ZM87.5949 105.317H90.4479C91.1514 105.317 91.7442 105.464 92.2262 105.757C92.7082 106.043 93.0763 106.441 93.3303 106.949C93.5843 107.45 93.7114 108.024 93.7114 108.668C93.7114 109.15 93.6364 109.597 93.4866 110.007C93.3433 110.417 93.1349 110.779 92.8613 111.092C92.5877 111.398 92.249 111.635 91.8451 111.805C91.4413 111.974 90.9755 112.059 90.4479 112.059H86.8718V101.487H87.9564V111.043H90.4479C90.9755 111.043 91.3957 110.932 91.7083 110.711C92.0275 110.489 92.2588 110.199 92.4021 109.841C92.5454 109.476 92.617 109.092 92.617 108.688C92.617 108.304 92.5454 107.932 92.4021 107.574C92.2588 107.209 92.0275 106.913 91.7083 106.685C91.3957 106.45 90.9755 106.333 90.4479 106.333H87.5949V105.317ZM96.7501 101.487V112.059H95.6557V101.487H96.7501Z" fill="#32ADE6"/>
<path d="M46.8848 48.0248L41.1818 42.3218L42.6075 40.8961L46.8848 45.1733L56.0646 35.9935L57.4904 37.4193L46.8848 48.0248Z" fill="#F2F4FA"/>
<circle cx="222.928" cy="42.5223" r="37.5197" fill="#32ADE6"/>
<path d="M175.969 97.8327V112.059H174.846V98.8781H168.251V112.059H167.127V97.8327H175.969ZM180.239 103.519V116.124H179.155V101.487H180.161L180.239 103.519ZM186.366 106.284V107.271C186.366 108.125 186.291 108.864 186.141 109.489C185.991 110.115 185.769 110.632 185.476 111.043C185.183 111.453 184.828 111.759 184.411 111.961C183.994 112.163 183.516 112.264 182.975 112.264C182.447 112.264 181.982 112.173 181.578 111.99C181.18 111.808 180.839 111.551 180.552 111.219C180.265 110.88 180.037 110.486 179.868 110.036C179.699 109.58 179.581 109.079 179.516 108.532V105.278C179.594 104.679 179.718 104.135 179.887 103.646C180.063 103.158 180.291 102.738 180.571 102.386C180.858 102.034 181.197 101.764 181.588 101.575C181.985 101.386 182.441 101.292 182.956 101.292C183.496 101.292 183.978 101.386 184.402 101.575C184.825 101.764 185.183 102.057 185.476 102.454C185.776 102.852 185.997 103.369 186.141 104.008C186.291 104.64 186.366 105.398 186.366 106.284ZM185.291 107.271V106.284C185.291 105.6 185.239 105.014 185.134 104.526C185.03 104.031 184.871 103.62 184.656 103.295C184.447 102.969 184.177 102.728 183.845 102.571C183.519 102.409 183.135 102.327 182.692 102.327C182.236 102.327 181.848 102.412 181.529 102.581C181.21 102.744 180.943 102.962 180.728 103.236C180.513 103.509 180.343 103.809 180.22 104.135C180.096 104.454 180.005 104.77 179.946 105.083V108.786C180.05 109.222 180.213 109.629 180.435 110.007C180.656 110.378 180.953 110.678 181.324 110.906C181.695 111.134 182.158 111.248 182.711 111.248C183.154 111.248 183.535 111.17 183.854 111.013C184.18 110.851 184.447 110.606 184.656 110.281C184.871 109.948 185.03 109.535 185.134 109.04C185.239 108.545 185.291 107.955 185.291 107.271ZM192.375 112.264C191.788 112.264 191.251 112.17 190.762 111.981C190.274 111.785 189.85 111.492 189.492 111.101C189.14 110.704 188.867 110.206 188.671 109.606C188.476 109.001 188.378 108.287 188.378 107.467V106.255C188.378 105.376 188.479 104.623 188.681 103.998C188.89 103.366 189.173 102.852 189.531 102.454C189.89 102.057 190.297 101.764 190.753 101.575C191.209 101.386 191.687 101.292 192.189 101.292C192.769 101.292 193.277 101.386 193.713 101.575C194.156 101.764 194.527 102.05 194.827 102.435C195.127 102.819 195.351 103.304 195.501 103.891C195.658 104.47 195.736 105.157 195.736 105.952V106.861H189.033V105.845H194.651V105.571C194.638 104.881 194.54 104.294 194.358 103.812C194.182 103.324 193.912 102.953 193.547 102.698C193.189 102.438 192.736 102.308 192.189 102.308C191.792 102.308 191.424 102.383 191.085 102.532C190.753 102.676 190.463 102.904 190.215 103.216C189.974 103.529 189.789 103.936 189.658 104.438C189.528 104.939 189.463 105.545 189.463 106.255V107.467C189.463 108.118 189.531 108.678 189.668 109.147C189.811 109.616 190.013 110.007 190.274 110.32C190.541 110.632 190.857 110.867 191.222 111.023C191.586 111.173 191.99 111.248 192.433 111.248C192.967 111.248 193.44 111.153 193.85 110.965C194.267 110.776 194.635 110.492 194.954 110.115L195.521 110.838C195.338 111.098 195.104 111.336 194.817 111.551C194.531 111.766 194.189 111.938 193.791 112.069C193.394 112.199 192.922 112.264 192.375 112.264ZM199.644 101.487H200.729L200.582 105.307C200.543 106.323 200.448 107.203 200.299 107.945C200.149 108.688 199.96 109.323 199.732 109.851C199.51 110.378 199.263 110.821 198.989 111.18C198.722 111.531 198.452 111.824 198.178 112.059H197.592L197.621 111.052L197.875 111.043C198.038 110.815 198.204 110.557 198.374 110.271C198.543 109.978 198.706 109.619 198.862 109.196C199.025 108.773 199.162 108.248 199.273 107.623C199.383 106.991 199.458 106.219 199.497 105.307L199.644 101.487ZM199.976 101.487H204.969V112.059H203.894V102.601H199.976V101.487ZM197.231 111.043H205.946V115.166H204.852V112.059H198.276V115.166H197.221L197.231 111.043ZM211.291 106.939H209.835V106.138H211.213C211.734 106.138 212.147 106.063 212.453 105.913C212.766 105.757 212.988 105.539 213.118 105.258C213.255 104.978 213.323 104.653 213.323 104.281C213.323 103.923 213.251 103.594 213.108 103.295C212.971 102.995 212.743 102.754 212.424 102.571C212.105 102.389 211.685 102.298 211.164 102.298C210.76 102.298 210.389 102.386 210.05 102.562C209.718 102.738 209.451 102.979 209.249 103.285C209.047 103.591 208.946 103.943 208.946 104.34H207.861C207.861 103.715 208.014 103.174 208.32 102.718C208.627 102.262 209.03 101.91 209.532 101.663C210.034 101.415 210.577 101.292 211.164 101.292C211.672 101.292 212.124 101.357 212.522 101.487C212.926 101.617 213.268 101.813 213.548 102.073C213.828 102.327 214.043 102.64 214.193 103.011C214.342 103.382 214.417 103.812 214.417 104.301C214.417 104.659 214.349 104.998 214.212 105.317C214.075 105.636 213.873 105.92 213.606 106.167C213.339 106.408 213.01 106.597 212.62 106.734C212.229 106.871 211.786 106.939 211.291 106.939ZM209.835 106.392H211.291C211.844 106.392 212.323 106.454 212.727 106.577C213.131 106.695 213.47 106.871 213.743 107.105C214.023 107.34 214.232 107.629 214.369 107.975C214.505 108.313 214.574 108.704 214.574 109.147C214.574 109.636 214.492 110.072 214.329 110.456C214.167 110.841 213.932 111.166 213.626 111.434C213.326 111.694 212.968 111.896 212.551 112.039C212.134 112.176 211.675 112.245 211.173 112.245C210.62 112.245 210.079 112.131 209.552 111.903C209.024 111.675 208.584 111.323 208.232 110.847C207.887 110.365 207.715 109.756 207.715 109.02H208.799C208.799 109.431 208.9 109.805 209.102 110.144C209.304 110.476 209.584 110.743 209.942 110.945C210.301 111.147 210.711 111.248 211.173 111.248C211.682 111.248 212.105 111.16 212.444 110.984C212.789 110.802 213.046 110.554 213.216 110.242C213.391 109.929 213.479 109.571 213.479 109.167C213.479 108.698 213.395 108.32 213.225 108.033C213.062 107.74 212.815 107.525 212.483 107.388C212.151 107.252 211.727 107.183 211.213 107.183H209.835V106.392ZM222.468 110.163V104.408C222.468 103.913 222.384 103.513 222.214 103.207C222.045 102.894 221.798 102.666 221.472 102.523C221.146 102.379 220.739 102.308 220.251 102.308C219.808 102.308 219.413 102.399 219.068 102.581C218.723 102.757 218.453 103.005 218.257 103.324C218.062 103.636 217.964 103.998 217.964 104.408L216.88 104.399C216.88 103.988 216.961 103.597 217.124 103.226C217.287 102.855 217.518 102.526 217.818 102.239C218.117 101.946 218.475 101.715 218.892 101.546C219.316 101.376 219.788 101.292 220.309 101.292C220.934 101.292 221.491 101.392 221.98 101.594C222.468 101.796 222.85 102.129 223.123 102.591C223.403 103.054 223.543 103.666 223.543 104.428V109.841C223.543 110.206 223.566 110.584 223.612 110.974C223.664 111.365 223.735 111.684 223.827 111.932V112.059H222.683C222.612 111.831 222.556 111.538 222.517 111.18C222.485 110.821 222.468 110.483 222.468 110.163ZM222.703 105.894L222.723 106.812H220.837C220.329 106.812 219.882 106.867 219.498 106.978C219.114 107.089 218.791 107.248 218.531 107.457C218.277 107.665 218.085 107.916 217.954 108.209C217.824 108.496 217.759 108.822 217.759 109.186C217.759 109.655 217.834 110.04 217.984 110.339C218.14 110.632 218.361 110.851 218.648 110.994C218.941 111.131 219.29 111.199 219.694 111.199C220.221 111.199 220.69 111.092 221.101 110.877C221.511 110.662 221.846 110.378 222.107 110.027C222.368 109.675 222.537 109.3 222.615 108.903L222.908 109.558C222.843 109.851 222.723 110.157 222.547 110.476C222.371 110.789 222.143 111.082 221.863 111.355C221.583 111.622 221.25 111.841 220.866 112.01C220.482 112.179 220.049 112.264 219.567 112.264C218.987 112.264 218.479 112.153 218.042 111.932C217.606 111.71 217.267 111.378 217.026 110.935C216.792 110.486 216.674 109.932 216.674 109.274C216.674 108.786 216.759 108.336 216.928 107.926C217.098 107.515 217.349 107.157 217.681 106.851C218.013 106.545 218.43 106.31 218.931 106.148C219.433 105.978 220.016 105.894 220.68 105.894H222.703ZM238.502 111.043L238.414 115.195H237.428V112.059H236.353V111.043H238.502ZM226.533 101.487H227.618V111.043H231.438V101.487H232.523V111.043H236.314V101.487H237.388V112.059H226.533V101.487ZM241.639 110.134L246.299 101.487H247.394V112.059H246.299V103.412L241.639 112.059H240.564V101.487H241.639V110.134ZM253.608 101.487V112.059H252.523V101.487H253.608ZM256.793 101.487V102.493H249.446V101.487H256.793ZM263.975 110.163V104.408C263.975 103.913 263.89 103.513 263.721 103.207C263.551 102.894 263.304 102.666 262.978 102.523C262.652 102.379 262.245 102.308 261.757 102.308C261.314 102.308 260.92 102.399 260.574 102.581C260.229 102.757 259.959 103.005 259.763 103.324C259.568 103.636 259.47 103.998 259.47 104.408L258.386 104.399C258.386 103.988 258.467 103.597 258.63 103.226C258.793 102.855 259.024 102.526 259.324 102.239C259.623 101.946 259.982 101.715 260.399 101.546C260.822 101.376 261.294 101.292 261.815 101.292C262.441 101.292 262.998 101.392 263.486 101.594C263.975 101.796 264.356 102.129 264.629 102.591C264.909 103.054 265.049 103.666 265.049 104.428V109.841C265.049 110.206 265.072 110.584 265.118 110.974C265.17 111.365 265.242 111.684 265.333 111.932V112.059H264.19C264.118 111.831 264.063 111.538 264.024 111.18C263.991 110.821 263.975 110.483 263.975 110.163ZM264.209 105.894L264.229 106.812H262.343C261.835 106.812 261.389 106.867 261.004 106.978C260.62 107.089 260.298 107.248 260.037 107.457C259.783 107.665 259.591 107.916 259.461 108.209C259.33 108.496 259.265 108.822 259.265 109.186C259.265 109.655 259.34 110.04 259.49 110.339C259.646 110.632 259.868 110.851 260.154 110.994C260.447 111.131 260.796 111.199 261.2 111.199C261.727 111.199 262.196 111.092 262.607 110.877C263.017 110.662 263.353 110.378 263.613 110.027C263.874 109.675 264.043 109.3 264.121 108.903L264.414 109.558C264.349 109.851 264.229 110.157 264.053 110.476C263.877 110.789 263.649 111.082 263.369 111.355C263.089 111.622 262.757 111.841 262.372 112.01C261.988 112.179 261.555 112.264 261.073 112.264C260.493 112.264 259.985 112.153 259.549 111.932C259.112 111.71 258.773 111.378 258.532 110.935C258.298 110.486 258.181 109.932 258.181 109.274C258.181 108.786 258.265 108.336 258.435 107.926C258.604 107.515 258.855 107.157 259.187 106.851C259.519 106.545 259.936 106.31 260.438 106.148C260.939 105.978 261.522 105.894 262.187 105.894H264.209ZM277.009 97.774V112.059H275.924V99.269L272.71 100.705V99.5816L276.813 97.774H277.009Z" fill="#32ADE6"/>
<path d="M220.976 48.0248L215.273 42.3218L216.699 40.8961L220.976 45.1733L230.156 35.9935L231.582 37.4193L220.976 48.0248Z" fill="#F2F4FA"/>
<circle cx="1099.39" cy="42.5223" r="37.5197" fill="#D9D9D9"/>
<path d="M1103.6 34.7995V35.4835L1098.54 49.0258H1097.41L1102.45 35.8157H1095.72V34.7995H1103.6Z" fill="black"/>
<path d="M1066.69 106.275H1063.32V105.229H1066.69C1067.39 105.229 1067.95 105.092 1068.38 104.819C1068.81 104.539 1069.12 104.164 1069.32 103.695C1069.52 103.22 1069.62 102.689 1069.62 102.102C1069.62 101.523 1069.52 100.989 1069.32 100.5C1069.12 100.012 1068.81 99.6207 1068.38 99.3276C1067.95 99.028 1067.39 98.8781 1066.69 98.8781H1063.67V112.059H1062.56V97.8327H1066.69C1067.56 97.8327 1068.3 98.0118 1068.9 98.3701C1069.51 98.7283 1069.96 99.2266 1070.27 99.865C1070.58 100.503 1070.74 101.243 1070.74 102.083C1070.74 102.956 1070.58 103.708 1070.28 104.34C1069.97 104.965 1069.52 105.444 1068.92 105.776C1068.32 106.108 1067.58 106.275 1066.69 106.275ZM1076.45 112.264C1075.87 112.264 1075.33 112.17 1074.84 111.981C1074.35 111.785 1073.93 111.492 1073.57 111.101C1073.22 110.704 1072.94 110.206 1072.75 109.606C1072.55 109.001 1072.46 108.287 1072.46 107.467V106.255C1072.46 105.376 1072.56 104.623 1072.76 103.998C1072.97 103.366 1073.25 102.852 1073.61 102.454C1073.97 102.057 1074.37 101.764 1074.83 101.575C1075.29 101.386 1075.77 101.292 1076.27 101.292C1076.85 101.292 1077.35 101.386 1077.79 101.575C1078.23 101.764 1078.61 102.05 1078.9 102.435C1079.2 102.819 1079.43 103.304 1079.58 103.891C1079.74 104.47 1079.81 105.157 1079.81 105.952V106.861H1073.11V105.845H1078.73V105.571C1078.72 104.881 1078.62 104.294 1078.44 103.812C1078.26 103.324 1077.99 102.953 1077.62 102.698C1077.27 102.438 1076.81 102.308 1076.27 102.308C1075.87 102.308 1075.5 102.383 1075.16 102.532C1074.83 102.676 1074.54 102.904 1074.29 103.216C1074.05 103.529 1073.87 103.936 1073.74 104.438C1073.61 104.939 1073.54 105.545 1073.54 106.255V107.467C1073.54 108.118 1073.61 108.678 1073.75 109.147C1073.89 109.616 1074.09 110.007 1074.35 110.32C1074.62 110.632 1074.93 110.867 1075.3 111.023C1075.66 111.173 1076.07 111.248 1076.51 111.248C1077.05 111.248 1077.52 111.153 1077.93 110.965C1078.34 110.776 1078.71 110.492 1079.03 110.115L1079.6 110.838C1079.42 111.098 1079.18 111.336 1078.9 111.551C1078.61 111.766 1078.27 111.938 1077.87 112.069C1077.47 112.199 1077 112.264 1076.45 112.264ZM1082.22 112.059V101.487H1083.3V111.043H1087.95V101.487H1089.05V112.059H1082.22ZM1089.98 111.043L1089.89 115.195H1088.9V112.059H1087.83V111.043H1089.98ZM1095.66 112.264C1095.08 112.264 1094.54 112.17 1094.05 111.981C1093.56 111.785 1093.14 111.492 1092.78 111.101C1092.43 110.704 1092.15 110.206 1091.96 109.606C1091.76 109.001 1091.67 108.287 1091.67 107.467V106.255C1091.67 105.376 1091.77 104.623 1091.97 103.998C1092.18 103.366 1092.46 102.852 1092.82 102.454C1093.18 102.057 1093.58 101.764 1094.04 101.575C1094.5 101.386 1094.97 101.292 1095.48 101.292C1096.06 101.292 1096.56 101.386 1097 101.575C1097.44 101.764 1097.81 102.05 1098.11 102.435C1098.41 102.819 1098.64 103.304 1098.79 103.891C1098.94 104.47 1099.02 105.157 1099.02 105.952V106.861H1092.32V105.845H1097.94V105.571C1097.93 104.881 1097.83 104.294 1097.65 103.812C1097.47 103.324 1097.2 102.953 1096.83 102.698C1096.48 102.438 1096.02 102.308 1095.48 102.308C1095.08 102.308 1094.71 102.383 1094.37 102.532C1094.04 102.676 1093.75 102.904 1093.5 103.216C1093.26 103.529 1093.08 103.936 1092.95 104.438C1092.82 104.939 1092.75 105.545 1092.75 106.255V107.467C1092.75 108.118 1092.82 108.678 1092.96 109.147C1093.1 109.616 1093.3 110.007 1093.56 110.32C1093.83 110.632 1094.14 110.867 1094.51 111.023C1094.87 111.173 1095.28 111.248 1095.72 111.248C1096.25 111.248 1096.73 111.153 1097.14 110.965C1097.55 110.776 1097.92 110.492 1098.24 110.115L1098.81 110.838C1098.63 111.098 1098.39 111.336 1098.1 111.551C1097.82 111.766 1097.48 111.938 1097.08 112.069C1096.68 112.199 1096.21 112.264 1095.66 112.264ZM1107.4 106.206V107.222H1102.25V106.206H1107.4ZM1102.51 101.487V112.059H1101.43V101.487H1102.51ZM1108.24 101.487V112.059H1107.16V101.487H1108.24ZM1114.34 106.939H1112.89V106.138H1114.27C1114.79 106.138 1115.2 106.063 1115.51 105.913C1115.82 105.757 1116.04 105.539 1116.17 105.258C1116.31 104.978 1116.38 104.653 1116.38 104.281C1116.38 103.923 1116.3 103.594 1116.16 103.295C1116.02 102.995 1115.8 102.754 1115.48 102.571C1115.16 102.389 1114.74 102.298 1114.22 102.298C1113.81 102.298 1113.44 102.386 1113.1 102.562C1112.77 102.738 1112.5 102.979 1112.3 103.285C1112.1 103.591 1112 103.943 1112 104.34H1110.91C1110.91 103.715 1111.07 103.174 1111.37 102.718C1111.68 102.262 1112.08 101.91 1112.58 101.663C1113.09 101.415 1113.63 101.292 1114.22 101.292C1114.72 101.292 1115.18 101.357 1115.57 101.487C1115.98 101.617 1116.32 101.813 1116.6 102.073C1116.88 102.327 1117.1 102.64 1117.25 103.011C1117.4 103.382 1117.47 103.812 1117.47 104.301C1117.47 104.659 1117.4 104.998 1117.26 105.317C1117.13 105.636 1116.93 105.92 1116.66 106.167C1116.39 106.408 1116.06 106.597 1115.67 106.734C1115.28 106.871 1114.84 106.939 1114.34 106.939ZM1112.89 106.392H1114.34C1114.9 106.392 1115.38 106.454 1115.78 106.577C1116.18 106.695 1116.52 106.871 1116.8 107.105C1117.08 107.34 1117.28 107.629 1117.42 107.975C1117.56 108.313 1117.63 108.704 1117.63 109.147C1117.63 109.636 1117.54 110.072 1117.38 110.456C1117.22 110.841 1116.98 111.166 1116.68 111.434C1116.38 111.694 1116.02 111.896 1115.6 112.039C1115.19 112.176 1114.73 112.245 1114.23 112.245C1113.67 112.245 1113.13 112.131 1112.6 111.903C1112.08 111.675 1111.64 111.323 1111.29 110.847C1110.94 110.365 1110.77 109.756 1110.77 109.02H1111.85C1111.85 109.431 1111.95 109.805 1112.15 110.144C1112.36 110.476 1112.64 110.743 1113 110.945C1113.35 111.147 1113.76 111.248 1114.23 111.248C1114.73 111.248 1115.16 111.16 1115.5 110.984C1115.84 110.802 1116.1 110.554 1116.27 110.242C1116.44 109.929 1116.53 109.571 1116.53 109.167C1116.53 108.698 1116.45 108.32 1116.28 108.033C1116.12 107.74 1115.87 107.525 1115.54 107.388C1115.2 107.252 1114.78 107.183 1114.27 107.183H1112.89V106.392ZM1121.3 110.134L1125.96 101.487H1127.06V112.059H1125.96V103.412L1121.3 112.059H1120.23V101.487H1121.3V110.134ZM1131.95 107.203H1133.14L1130.66 112.059H1129.47L1131.95 107.203ZM1133.03 101.487H1136.56V112.059H1135.49V102.493H1133.03C1132.53 102.493 1132.12 102.598 1131.8 102.806C1131.49 103.008 1131.26 103.275 1131.12 103.607C1130.98 103.939 1130.9 104.291 1130.9 104.662C1130.9 105.014 1130.97 105.353 1131.09 105.679C1131.22 106.004 1131.42 106.271 1131.7 106.48C1131.97 106.682 1132.33 106.783 1132.78 106.783H1135.85V107.809H1132.78C1132.31 107.809 1131.88 107.73 1131.51 107.574C1131.15 107.418 1130.84 107.196 1130.58 106.91C1130.33 106.623 1130.14 106.288 1130.01 105.903C1129.88 105.519 1129.81 105.099 1129.81 104.643C1129.81 104.193 1129.88 103.777 1130.03 103.392C1130.17 103.008 1130.38 102.672 1130.65 102.386C1130.92 102.099 1131.26 101.878 1131.66 101.721C1132.06 101.565 1132.52 101.487 1133.03 101.487Z" fill="black"/>
<circle cx="1274.48" cy="42.5223" r="37.5197" fill="#D9D9D9"/>
<path d="M1278.66 45.2445C1278.66 46.1108 1278.49 46.8404 1278.16 47.4331C1277.82 48.0194 1277.36 48.4656 1276.79 48.7717C1276.21 49.0714 1275.57 49.2212 1274.86 49.2212C1274.14 49.2212 1273.49 49.0714 1272.92 48.7717C1272.35 48.4656 1271.89 48.0194 1271.55 47.4331C1271.22 46.8404 1271.05 46.1108 1271.05 45.2445C1271.05 44.6843 1271.15 44.173 1271.34 43.7105C1271.52 43.2415 1271.79 42.8376 1272.12 42.4989C1272.46 42.1537 1272.86 41.8866 1273.32 41.6977C1273.78 41.5088 1274.29 41.4143 1274.84 41.4143C1275.57 41.4143 1276.21 41.5804 1276.79 41.9127C1277.37 42.2383 1277.82 42.6878 1278.16 43.261C1278.49 43.8342 1278.66 44.4954 1278.66 45.2445ZM1277.57 45.2542C1277.57 44.6485 1277.45 44.1208 1277.21 43.6714C1276.97 43.2154 1276.65 42.8637 1276.24 42.6161C1275.83 42.3621 1275.36 42.2351 1274.84 42.2351C1274.32 42.2351 1273.85 42.3621 1273.44 42.6161C1273.03 42.8637 1272.71 43.2154 1272.48 43.6714C1272.25 44.1208 1272.14 44.6485 1272.14 45.2542C1272.14 45.8796 1272.25 46.4137 1272.48 46.8567C1272.71 47.2931 1273.04 47.6285 1273.45 47.863C1273.86 48.091 1274.33 48.205 1274.86 48.205C1275.4 48.205 1275.87 48.091 1276.27 47.863C1276.67 47.6285 1276.99 47.2931 1277.22 46.8567C1277.45 46.4137 1277.57 45.8796 1277.57 45.2542ZM1278.36 38.4636C1278.36 39.1606 1278.2 39.7794 1277.89 40.32C1277.58 40.8607 1277.16 41.2873 1276.63 41.6C1276.1 41.9061 1275.51 42.0592 1274.85 42.0592C1274.18 42.0592 1273.57 41.9061 1273.05 41.6C1272.52 41.2873 1272.11 40.8607 1271.81 40.32C1271.51 39.7794 1271.36 39.1606 1271.36 38.4636C1271.36 37.6363 1271.51 36.9361 1271.81 36.3629C1272.11 35.7896 1272.52 35.3532 1273.05 35.0536C1273.57 34.7539 1274.17 34.6041 1274.83 34.6041C1275.51 34.6041 1276.11 34.7539 1276.64 35.0536C1277.17 35.3532 1277.59 35.7896 1277.89 36.3629C1278.2 36.9361 1278.36 37.6363 1278.36 38.4636ZM1277.28 38.4538C1277.28 37.9001 1277.17 37.4116 1276.95 36.9882C1276.75 36.5648 1276.46 36.2326 1276.08 35.9916C1275.72 35.744 1275.3 35.6203 1274.83 35.6203C1274.37 35.6203 1273.96 35.7343 1273.59 35.9623C1273.23 36.1902 1272.95 36.5159 1272.74 36.9393C1272.54 37.3627 1272.44 37.8676 1272.44 38.4538C1272.44 39.0205 1272.54 39.5123 1272.74 39.9292C1272.95 40.3396 1273.23 40.6587 1273.59 40.8867C1273.96 41.1082 1274.38 41.2189 1274.85 41.2189C1275.32 41.2189 1275.74 41.1082 1276.1 40.8867C1276.47 40.6587 1276.76 40.3396 1276.96 39.9292C1277.17 39.5123 1277.28 39.0205 1277.28 38.4538Z" fill="black"/>
<path d="M1249.15 105.131H1247.7V104.272H1249.11C1249.82 104.272 1250.4 104.158 1250.83 103.93C1251.27 103.702 1251.59 103.386 1251.79 102.982C1251.99 102.571 1252.09 102.093 1252.09 101.546C1252.09 101.005 1251.99 100.52 1251.77 100.09C1251.56 99.6533 1251.23 99.3113 1250.78 99.0638C1250.34 98.8097 1249.77 98.6827 1249.06 98.6827C1248.53 98.6827 1248.05 98.8032 1247.61 99.0442C1247.17 99.2787 1246.82 99.6142 1246.56 100.051C1246.3 100.481 1246.17 100.985 1246.17 101.565H1245.06C1245.06 100.959 1245.16 100.415 1245.37 99.9334C1245.59 99.4448 1245.88 99.0312 1246.25 98.6925C1246.62 98.3473 1247.05 98.0867 1247.53 97.9108C1248.01 97.7284 1248.52 97.6372 1249.06 97.6372C1249.7 97.6372 1250.27 97.7219 1250.77 97.8913C1251.28 98.0606 1251.72 98.3114 1252.08 98.6436C1252.45 98.9693 1252.73 99.3797 1252.92 99.8747C1253.12 100.363 1253.22 100.93 1253.22 101.575C1253.22 102.063 1253.12 102.523 1252.93 102.953C1252.75 103.382 1252.48 103.76 1252.13 104.086C1251.79 104.412 1251.36 104.669 1250.86 104.858C1250.36 105.04 1249.79 105.131 1249.15 105.131ZM1247.7 104.496H1249.15C1249.86 104.496 1250.47 104.578 1251 104.741C1251.53 104.903 1251.97 105.141 1252.32 105.454C1252.68 105.767 1252.95 106.154 1253.13 106.617C1253.31 107.073 1253.4 107.597 1253.4 108.19C1253.4 108.835 1253.3 109.411 1253.08 109.919C1252.87 110.421 1252.56 110.847 1252.17 111.199C1251.79 111.544 1251.33 111.808 1250.8 111.99C1250.28 112.173 1249.7 112.264 1249.06 112.264C1248.56 112.264 1248.05 112.183 1247.56 112.02C1247.06 111.857 1246.62 111.606 1246.21 111.267C1245.81 110.929 1245.49 110.499 1245.24 109.978C1245 109.457 1244.88 108.835 1244.88 108.111H1246.01C1246.01 108.698 1246.13 109.225 1246.39 109.694C1246.65 110.163 1247.01 110.535 1247.46 110.808C1247.92 111.082 1248.46 111.219 1249.06 111.219C1249.75 111.219 1250.33 111.095 1250.8 110.847C1251.29 110.6 1251.65 110.251 1251.9 109.802C1252.15 109.352 1252.28 108.828 1252.28 108.229C1252.28 107.721 1252.21 107.284 1252.07 106.919C1251.94 106.555 1251.74 106.255 1251.47 106.021C1251.2 105.78 1250.87 105.604 1250.47 105.493C1250.08 105.382 1249.63 105.327 1249.11 105.327H1247.7V104.496ZM1261.19 110.163V104.408C1261.19 103.913 1261.11 103.513 1260.94 103.207C1260.77 102.894 1260.52 102.666 1260.19 102.523C1259.87 102.379 1259.46 102.308 1258.97 102.308C1258.53 102.308 1258.14 102.399 1257.79 102.581C1257.44 102.757 1257.17 103.005 1256.98 103.324C1256.78 103.636 1256.69 103.998 1256.69 104.408L1255.6 104.399C1255.6 103.988 1255.68 103.597 1255.85 103.226C1256.01 102.855 1256.24 102.526 1256.54 102.239C1256.84 101.946 1257.2 101.715 1257.61 101.546C1258.04 101.376 1258.51 101.292 1259.03 101.292C1259.66 101.292 1260.21 101.392 1260.7 101.594C1261.19 101.796 1261.57 102.129 1261.84 102.591C1262.12 103.054 1262.26 103.666 1262.26 104.428V109.841C1262.26 110.206 1262.29 110.584 1262.33 110.974C1262.39 111.365 1262.46 111.684 1262.55 111.932V112.059H1261.41C1261.33 111.831 1261.28 111.538 1261.24 111.18C1261.21 110.821 1261.19 110.483 1261.19 110.163ZM1261.42 105.894L1261.44 106.812H1259.56C1259.05 106.812 1258.6 106.867 1258.22 106.978C1257.84 107.089 1257.51 107.248 1257.25 107.457C1257 107.665 1256.81 107.916 1256.68 108.209C1256.55 108.496 1256.48 108.822 1256.48 109.186C1256.48 109.655 1256.56 110.04 1256.71 110.339C1256.86 110.632 1257.08 110.851 1257.37 110.994C1257.66 111.131 1258.01 111.199 1258.42 111.199C1258.94 111.199 1259.41 111.092 1259.82 110.877C1260.23 110.662 1260.57 110.378 1260.83 110.027C1261.09 109.675 1261.26 109.3 1261.34 108.903L1261.63 109.558C1261.56 109.851 1261.44 110.157 1261.27 110.476C1261.09 110.789 1260.86 111.082 1260.58 111.355C1260.3 111.622 1259.97 111.841 1259.59 112.01C1259.2 112.179 1258.77 112.264 1258.29 112.264C1257.71 112.264 1257.2 112.153 1256.76 111.932C1256.33 111.71 1255.99 111.378 1255.75 110.935C1255.51 110.486 1255.4 109.932 1255.4 109.274C1255.4 108.786 1255.48 108.336 1255.65 107.926C1255.82 107.515 1256.07 107.157 1256.4 106.851C1256.73 106.545 1257.15 106.31 1257.65 106.148C1258.15 105.978 1258.74 105.894 1259.4 105.894H1261.42ZM1277.22 111.043L1277.14 115.195H1276.15V112.059H1275.07V111.043H1277.22ZM1265.25 101.487H1266.34V111.043H1270.16V101.487H1271.24V111.043H1275.04V101.487H1276.11V112.059H1265.25V101.487ZM1280.36 110.134L1285.02 101.487H1286.12V112.059H1285.02V103.412L1280.36 112.059H1279.29V101.487H1280.36V110.134ZM1292.33 101.487V112.059H1291.24V101.487H1292.33ZM1295.51 101.487V102.493H1288.17V101.487H1295.51ZM1302.7 110.163V104.408C1302.7 103.913 1302.61 103.513 1302.44 103.207C1302.27 102.894 1302.03 102.666 1301.7 102.523C1301.37 102.379 1300.97 102.308 1300.48 102.308C1300.04 102.308 1299.64 102.399 1299.3 102.581C1298.95 102.757 1298.68 103.005 1298.49 103.324C1298.29 103.636 1298.19 103.998 1298.19 104.408L1297.11 104.399C1297.11 103.988 1297.19 103.597 1297.35 103.226C1297.51 102.855 1297.75 102.526 1298.05 102.239C1298.35 101.946 1298.7 101.715 1299.12 101.546C1299.54 101.376 1300.02 101.292 1300.54 101.292C1301.16 101.292 1301.72 101.392 1302.21 101.594C1302.7 101.796 1303.08 102.129 1303.35 102.591C1303.63 103.054 1303.77 103.666 1303.77 104.428V109.841C1303.77 110.206 1303.79 110.584 1303.84 110.974C1303.89 111.365 1303.96 111.684 1304.05 111.932V112.059H1302.91C1302.84 111.831 1302.78 111.538 1302.75 111.18C1302.71 110.821 1302.7 110.483 1302.7 110.163ZM1302.93 105.894L1302.95 106.812H1301.06C1300.56 106.812 1300.11 106.867 1299.73 106.978C1299.34 107.089 1299.02 107.248 1298.76 107.457C1298.5 107.665 1298.31 107.916 1298.18 108.209C1298.05 108.496 1297.99 108.822 1297.99 109.186C1297.99 109.655 1298.06 110.04 1298.21 110.339C1298.37 110.632 1298.59 110.851 1298.88 110.994C1299.17 111.131 1299.52 111.199 1299.92 111.199C1300.45 111.199 1300.92 111.092 1301.33 110.877C1301.74 110.662 1302.07 110.378 1302.33 110.027C1302.6 109.675 1302.76 109.3 1302.84 108.903L1303.14 109.558C1303.07 109.851 1302.95 110.157 1302.77 110.476C1302.6 110.789 1302.37 111.082 1302.09 111.355C1301.81 111.622 1301.48 111.841 1301.09 112.01C1300.71 112.179 1300.28 112.264 1299.79 112.264C1299.21 112.264 1298.71 112.153 1298.27 111.932C1297.83 111.71 1297.49 111.378 1297.25 110.935C1297.02 110.486 1296.9 109.932 1296.9 109.274C1296.9 108.786 1296.99 108.336 1297.16 107.926C1297.33 107.515 1297.58 107.157 1297.91 106.851C1298.24 106.545 1298.66 106.31 1299.16 106.148C1299.66 105.978 1300.24 105.894 1300.91 105.894H1302.93Z" fill="black"/>
<line x1="446.545" y1="41.5218" x2="526.587" y2="41.5218" stroke="black"/>
<line x1="270.453" y1="41.5218" x2="350.495" y2="41.5218" stroke="black"/>
<line x1="621.637" y1="41.5218" x2="701.679" y2="41.5218" stroke="black"/>
<line x1="796.729" y1="41.5218" x2="876.771" y2="41.5218" stroke="black"/>
<line x1="972.822" y1="41.5218" x2="1052.86" y2="41.5218" stroke="black"/>
<line x1="1147.91" y1="41.5218" x2="1227.96" y2="41.5218" stroke="black"/>
<line x1="95.3607" y1="41.5218" x2="175.403" y2="41.5218" stroke="black"/>
<circle cx="399.02" cy="42.5223" r="37.5197" fill="#32ADE6"/>
<path d="M352.062 97.8327V112.059H350.938V98.8781H344.343V112.059H343.219V97.8327H352.062ZM356.332 103.519V116.124H355.247V101.487H356.254L356.332 103.519ZM362.458 106.284V107.271C362.458 108.125 362.383 108.864 362.233 109.489C362.084 110.115 361.862 110.632 361.569 111.043C361.276 111.453 360.921 111.759 360.504 111.961C360.087 112.163 359.608 112.264 359.068 112.264C358.54 112.264 358.074 112.173 357.67 111.99C357.273 111.808 356.931 111.551 356.644 111.219C356.358 110.88 356.13 110.486 355.96 110.036C355.791 109.58 355.674 109.079 355.609 108.532V105.278C355.687 104.679 355.811 104.135 355.98 103.646C356.156 103.158 356.384 102.738 356.664 102.386C356.951 102.034 357.289 101.764 357.68 101.575C358.077 101.386 358.533 101.292 359.048 101.292C359.589 101.292 360.071 101.386 360.494 101.575C360.918 101.764 361.276 102.057 361.569 102.454C361.869 102.852 362.09 103.369 362.233 104.008C362.383 104.64 362.458 105.398 362.458 106.284ZM361.383 107.271V106.284C361.383 105.6 361.331 105.014 361.227 104.526C361.123 104.031 360.963 103.62 360.748 103.295C360.54 102.969 360.269 102.728 359.937 102.571C359.612 102.409 359.227 102.327 358.784 102.327C358.328 102.327 357.941 102.412 357.622 102.581C357.302 102.744 357.035 102.962 356.82 103.236C356.605 103.509 356.436 103.809 356.312 104.135C356.188 104.454 356.097 104.77 356.039 105.083V108.786C356.143 109.222 356.306 109.629 356.527 110.007C356.749 110.378 357.045 110.678 357.416 110.906C357.788 111.134 358.25 111.248 358.804 111.248C359.247 111.248 359.628 111.17 359.947 111.013C360.273 110.851 360.54 110.606 360.748 110.281C360.963 109.948 361.123 109.535 361.227 109.04C361.331 108.545 361.383 107.955 361.383 107.271ZM368.467 112.264C367.881 112.264 367.343 112.17 366.855 111.981C366.366 111.785 365.943 111.492 365.585 111.101C365.233 110.704 364.959 110.206 364.764 109.606C364.569 109.001 364.471 108.287 364.471 107.467V106.255C364.471 105.376 364.572 104.623 364.774 103.998C364.982 103.366 365.266 102.852 365.624 102.454C365.982 102.057 366.389 101.764 366.845 101.575C367.301 101.386 367.78 101.292 368.281 101.292C368.861 101.292 369.369 101.386 369.806 101.575C370.249 101.764 370.62 102.05 370.92 102.435C371.219 102.819 371.444 103.304 371.594 103.891C371.75 104.47 371.828 105.157 371.828 105.952V106.861H365.125V105.845H370.744V105.571C370.731 104.881 370.633 104.294 370.451 103.812C370.275 103.324 370.004 102.953 369.64 102.698C369.281 102.438 368.829 102.308 368.281 102.308C367.884 102.308 367.516 102.383 367.177 102.532C366.845 102.676 366.555 102.904 366.308 103.216C366.067 103.529 365.881 103.936 365.751 104.438C365.621 104.939 365.555 105.545 365.555 106.255V107.467C365.555 108.118 365.624 108.678 365.761 109.147C365.904 109.616 366.106 110.007 366.366 110.32C366.633 110.632 366.949 110.867 367.314 111.023C367.679 111.173 368.083 111.248 368.526 111.248C369.06 111.248 369.532 111.153 369.942 110.965C370.359 110.776 370.727 110.492 371.047 110.115L371.613 110.838C371.431 111.098 371.196 111.336 370.91 111.551C370.623 111.766 370.281 111.938 369.884 112.069C369.486 112.199 369.014 112.264 368.467 112.264ZM375.737 101.487H376.821L376.675 105.307C376.635 106.323 376.541 107.203 376.391 107.945C376.241 108.688 376.052 109.323 375.824 109.851C375.603 110.378 375.355 110.821 375.082 111.18C374.815 111.531 374.544 111.824 374.271 112.059H373.685L373.714 111.052L373.968 111.043C374.131 110.815 374.297 110.557 374.466 110.271C374.636 109.978 374.799 109.619 374.955 109.196C375.118 108.773 375.254 108.248 375.365 107.623C375.476 106.991 375.551 106.219 375.59 105.307L375.737 101.487ZM376.069 101.487H381.062V112.059H379.987V102.601H376.069V101.487ZM373.323 111.043H382.039V115.166H380.944V112.059H374.369V115.166H373.313L373.323 111.043ZM387.383 106.939H385.927V106.138H387.305C387.826 106.138 388.24 106.063 388.546 105.913C388.859 105.757 389.08 105.539 389.21 105.258C389.347 104.978 389.416 104.653 389.416 104.281C389.416 103.923 389.344 103.594 389.201 103.295C389.064 102.995 388.836 102.754 388.517 102.571C388.197 102.389 387.777 102.298 387.256 102.298C386.852 102.298 386.481 102.386 386.142 102.562C385.81 102.738 385.543 102.979 385.341 103.285C385.139 103.591 385.038 103.943 385.038 104.34H383.954C383.954 103.715 384.107 103.174 384.413 102.718C384.719 102.262 385.123 101.91 385.625 101.663C386.126 101.415 386.67 101.292 387.256 101.292C387.764 101.292 388.217 101.357 388.614 101.487C389.018 101.617 389.36 101.813 389.64 102.073C389.92 102.327 390.135 102.64 390.285 103.011C390.435 103.382 390.51 103.812 390.51 104.301C390.51 104.659 390.442 104.998 390.305 105.317C390.168 105.636 389.966 105.92 389.699 106.167C389.432 106.408 389.103 106.597 388.712 106.734C388.321 106.871 387.878 106.939 387.383 106.939ZM385.927 106.392H387.383C387.937 106.392 388.416 106.454 388.82 106.577C389.223 106.695 389.562 106.871 389.836 107.105C390.116 107.34 390.324 107.629 390.461 107.975C390.598 108.313 390.666 108.704 390.666 109.147C390.666 109.636 390.585 110.072 390.422 110.456C390.259 110.841 390.025 111.166 389.718 111.434C389.419 111.694 389.061 111.896 388.644 112.039C388.227 112.176 387.768 112.245 387.266 112.245C386.712 112.245 386.172 112.131 385.644 111.903C385.116 111.675 384.677 111.323 384.325 110.847C383.98 110.365 383.807 109.756 383.807 109.02H384.892C384.892 109.431 384.993 109.805 385.195 110.144C385.397 110.476 385.677 110.743 386.035 110.945C386.393 111.147 386.804 111.248 387.266 111.248C387.774 111.248 388.197 111.16 388.536 110.984C388.881 110.802 389.139 110.554 389.308 110.242C389.484 109.929 389.572 109.571 389.572 109.167C389.572 108.698 389.487 108.32 389.318 108.033C389.155 107.74 388.907 107.525 388.575 107.388C388.243 107.252 387.82 107.183 387.305 107.183H385.927V106.392ZM398.561 110.163V104.408C398.561 103.913 398.476 103.513 398.307 103.207C398.138 102.894 397.89 102.666 397.564 102.523C397.239 102.379 396.832 102.308 396.343 102.308C395.9 102.308 395.506 102.399 395.161 102.581C394.816 102.757 394.545 103.005 394.35 103.324C394.154 103.636 394.057 103.998 394.057 104.408L392.972 104.399C392.972 103.988 393.054 103.597 393.216 103.226C393.379 102.855 393.61 102.526 393.91 102.239C394.21 101.946 394.568 101.715 394.985 101.546C395.408 101.376 395.881 101.292 396.402 101.292C397.027 101.292 397.584 101.392 398.072 101.594C398.561 101.796 398.942 102.129 399.216 102.591C399.496 103.054 399.636 103.666 399.636 104.428V109.841C399.636 110.206 399.659 110.584 399.704 110.974C399.756 111.365 399.828 111.684 399.919 111.932V112.059H398.776C398.704 111.831 398.649 111.538 398.61 111.18C398.577 110.821 398.561 110.483 398.561 110.163ZM398.796 105.894L398.815 106.812H396.929C396.421 106.812 395.975 106.867 395.591 106.978C395.206 107.089 394.884 107.248 394.623 107.457C394.369 107.665 394.177 107.916 394.047 108.209C393.917 108.496 393.851 108.822 393.851 109.186C393.851 109.655 393.926 110.04 394.076 110.339C394.233 110.632 394.454 110.851 394.741 110.994C395.034 111.131 395.382 111.199 395.786 111.199C396.314 111.199 396.783 111.092 397.193 110.877C397.603 110.662 397.939 110.378 398.199 110.027C398.46 109.675 398.629 109.3 398.708 108.903L399.001 109.558C398.936 109.851 398.815 110.157 398.639 110.476C398.463 110.789 398.235 111.082 397.955 111.355C397.675 111.622 397.343 111.841 396.959 112.01C396.574 112.179 396.141 112.264 395.659 112.264C395.079 112.264 394.571 112.153 394.135 111.932C393.698 111.71 393.36 111.378 393.119 110.935C392.884 110.486 392.767 109.932 392.767 109.274C392.767 108.786 392.852 108.336 393.021 107.926C393.19 107.515 393.441 107.157 393.773 106.851C394.106 106.545 394.522 106.31 395.024 106.148C395.526 105.978 396.109 105.894 396.773 105.894H398.796ZM414.595 111.043L414.507 115.195H413.52V112.059H412.445V111.043H414.595ZM402.626 101.487H403.71V111.043H407.531V101.487H408.615V111.043H412.406V101.487H413.481V112.059H402.626V101.487ZM417.731 110.134L422.392 101.487H423.486V112.059H422.392V103.412L417.731 112.059H416.656V101.487H417.731V110.134ZM429.7 101.487V112.059H428.616V101.487H429.7ZM432.886 101.487V102.493H425.538V101.487H432.886ZM440.067 110.163V104.408C440.067 103.913 439.983 103.513 439.813 103.207C439.644 102.894 439.396 102.666 439.071 102.523C438.745 102.379 438.338 102.308 437.849 102.308C437.406 102.308 437.012 102.399 436.667 102.581C436.322 102.757 436.051 103.005 435.856 103.324C435.661 103.636 435.563 103.998 435.563 104.408L434.478 104.399C434.478 103.988 434.56 103.597 434.723 103.226C434.885 102.855 435.117 102.526 435.416 102.239C435.716 101.946 436.074 101.715 436.491 101.546C436.914 101.376 437.387 101.292 437.908 101.292C438.533 101.292 439.09 101.392 439.579 101.594C440.067 101.796 440.448 102.129 440.722 102.591C441.002 103.054 441.142 103.666 441.142 104.428V109.841C441.142 110.206 441.165 110.584 441.21 110.974C441.262 111.365 441.334 111.684 441.425 111.932V112.059H440.282C440.21 111.831 440.155 111.538 440.116 111.18C440.083 110.821 440.067 110.483 440.067 110.163ZM440.302 105.894L440.321 106.812H438.435C437.927 106.812 437.481 106.867 437.097 106.978C436.713 107.089 436.39 107.248 436.13 107.457C435.876 107.665 435.683 107.916 435.553 108.209C435.423 108.496 435.358 108.822 435.358 109.186C435.358 109.655 435.433 110.04 435.582 110.339C435.739 110.632 435.96 110.851 436.247 110.994C436.54 111.131 436.888 111.199 437.292 111.199C437.82 111.199 438.289 111.092 438.699 110.877C439.11 110.662 439.445 110.378 439.706 110.027C439.966 109.675 440.136 109.3 440.214 108.903L440.507 109.558C440.442 109.851 440.321 110.157 440.145 110.476C439.969 110.789 439.741 111.082 439.461 111.355C439.181 111.622 438.849 111.841 438.465 112.01C438.08 112.179 437.647 112.264 437.165 112.264C436.586 112.264 436.077 112.153 435.641 111.932C435.205 111.71 434.866 111.378 434.625 110.935C434.39 110.486 434.273 109.932 434.273 109.274C434.273 108.786 434.358 108.336 434.527 107.926C434.697 107.515 434.947 107.157 435.28 106.851C435.612 106.545 436.029 106.31 436.53 106.148C437.032 105.978 437.615 105.894 438.279 105.894H440.302ZM456.003 111.043V112.059H448.451V111.14L452.359 105.854C452.847 105.197 453.235 104.62 453.522 104.125C453.808 103.623 454.013 103.167 454.137 102.757C454.261 102.347 454.323 101.946 454.323 101.555C454.323 100.989 454.228 100.487 454.039 100.051C453.857 99.6142 453.587 99.2722 453.228 99.0247C452.87 98.7772 452.427 98.6534 451.9 98.6534C451.359 98.6534 450.89 98.7967 450.493 99.0833C450.102 99.3634 449.802 99.751 449.594 100.246C449.385 100.735 449.281 101.298 449.281 101.936H448.196C448.196 101.148 448.343 100.432 448.636 99.7868C448.929 99.1354 449.353 98.6143 449.906 98.2235C450.46 97.8327 451.124 97.6372 451.9 97.6372C452.623 97.6372 453.245 97.7903 453.766 98.0965C454.293 98.3961 454.701 98.8325 454.987 99.4058C455.274 99.9725 455.417 100.653 455.417 101.448C455.417 101.878 455.352 102.311 455.222 102.747C455.098 103.177 454.925 103.61 454.704 104.047C454.489 104.477 454.238 104.903 453.951 105.327C453.671 105.75 453.378 106.167 453.072 106.577L449.77 111.043H456.003Z" fill="#32ADE6"/>
<path d="M397.069 48.0248L391.366 42.3218L392.792 40.8961L397.069 45.1733L406.249 35.9935L407.674 37.4193L397.069 48.0248Z" fill="#F2F4FA"/>
<circle cx="749.204" cy="42.5223" r="37.5197" fill="#32ADE6"/>
<path d="M706.248 97.8327V112.059H705.124V98.8781H698.529V112.059H697.406V97.8327H706.248ZM710.518 103.519V116.124H709.433V101.487H710.44L710.518 103.519ZM716.644 106.284V107.271C716.644 108.125 716.569 108.864 716.419 109.489C716.27 110.115 716.048 110.632 715.755 111.043C715.462 111.453 715.107 111.759 714.69 111.961C714.273 112.163 713.794 112.264 713.254 112.264C712.726 112.264 712.26 112.173 711.857 111.99C711.459 111.808 711.117 111.551 710.831 111.219C710.544 110.88 710.316 110.486 710.147 110.036C709.977 109.58 709.86 109.079 709.795 108.532V105.278C709.873 104.679 709.997 104.135 710.166 103.646C710.342 103.158 710.57 102.738 710.85 102.386C711.137 102.034 711.475 101.764 711.866 101.575C712.264 101.386 712.72 101.292 713.234 101.292C713.775 101.292 714.257 101.386 714.68 101.575C715.104 101.764 715.462 102.057 715.755 102.454C716.055 102.852 716.276 103.369 716.419 104.008C716.569 104.64 716.644 105.398 716.644 106.284ZM715.569 107.271V106.284C715.569 105.6 715.517 105.014 715.413 104.526C715.309 104.031 715.149 103.62 714.934 103.295C714.726 102.969 714.456 102.728 714.123 102.571C713.798 102.409 713.413 102.327 712.97 102.327C712.514 102.327 712.127 102.412 711.808 102.581C711.488 102.744 711.221 102.962 711.006 103.236C710.791 103.509 710.622 103.809 710.498 104.135C710.375 104.454 710.283 104.77 710.225 105.083V108.786C710.329 109.222 710.492 109.629 710.713 110.007C710.935 110.378 711.231 110.678 711.602 110.906C711.974 111.134 712.436 111.248 712.99 111.248C713.433 111.248 713.814 111.17 714.133 111.013C714.459 110.851 714.726 110.606 714.934 110.281C715.149 109.948 715.309 109.535 715.413 109.04C715.517 108.545 715.569 107.955 715.569 107.271ZM718.764 107.33V106.226C718.764 105.425 718.856 104.718 719.038 104.105C719.227 103.493 719.491 102.979 719.829 102.562C720.175 102.145 720.582 101.829 721.051 101.614C721.526 101.399 722.047 101.292 722.614 101.292C723.2 101.292 723.728 101.399 724.197 101.614C724.672 101.829 725.08 102.145 725.418 102.562C725.764 102.979 726.027 103.493 726.21 104.105C726.399 104.718 726.493 105.425 726.493 106.226V107.33C726.493 108.125 726.399 108.828 726.21 109.44C726.027 110.053 725.764 110.57 725.418 110.994C725.073 111.411 724.663 111.727 724.187 111.942C723.718 112.157 723.2 112.264 722.634 112.264C722.06 112.264 721.536 112.157 721.061 111.942C720.592 111.727 720.184 111.411 719.839 110.994C719.494 110.57 719.227 110.053 719.038 109.44C718.856 108.828 718.764 108.125 718.764 107.33ZM719.849 106.226V107.33C719.849 107.929 719.911 108.47 720.035 108.952C720.158 109.434 720.338 109.847 720.572 110.193C720.813 110.531 721.106 110.792 721.451 110.974C721.797 111.157 722.191 111.248 722.634 111.248C723.103 111.248 723.51 111.157 723.855 110.974C724.207 110.792 724.497 110.531 724.725 110.193C724.959 109.847 725.132 109.434 725.242 108.952C725.36 108.47 725.418 107.929 725.418 107.33V106.226C725.418 105.626 725.356 105.089 725.233 104.614C725.109 104.132 724.923 103.721 724.676 103.382C724.435 103.037 724.142 102.773 723.796 102.591C723.458 102.402 723.064 102.308 722.614 102.308C722.184 102.308 721.797 102.402 721.451 102.591C721.106 102.773 720.813 103.037 720.572 103.382C720.338 103.721 720.158 104.132 720.035 104.614C719.911 105.089 719.849 105.626 719.849 106.226ZM732.981 107.193H729.903L729.884 106.196H732.492C733.013 106.196 733.447 106.128 733.792 105.991C734.144 105.848 734.407 105.639 734.583 105.366C734.766 105.086 734.857 104.744 734.857 104.34C734.857 104.021 734.805 103.747 734.701 103.519C734.596 103.285 734.44 103.093 734.232 102.943C734.03 102.793 733.776 102.682 733.469 102.611C733.17 102.532 732.815 102.493 732.404 102.493H730.196V112.059H729.112V101.487H732.404C732.958 101.487 733.45 101.546 733.88 101.663C734.31 101.774 734.678 101.946 734.984 102.181C735.297 102.409 735.534 102.698 735.697 103.05C735.86 103.402 735.941 103.819 735.941 104.301C735.941 104.627 735.889 104.933 735.785 105.219C735.681 105.499 735.525 105.753 735.316 105.981C735.114 106.203 734.867 106.385 734.574 106.529C734.28 106.665 733.945 106.75 733.567 106.783L732.981 107.193ZM732.981 112.059H729.551L729.991 111.052H732.981C733.456 111.052 733.86 110.978 734.192 110.828C734.525 110.678 734.775 110.456 734.945 110.163C735.121 109.87 735.209 109.515 735.209 109.098C735.209 108.714 735.121 108.379 734.945 108.092C734.775 107.805 734.525 107.584 734.192 107.428C733.86 107.271 733.456 107.193 732.981 107.193H730.695L730.714 106.196H733.636L734.075 106.568C734.531 106.613 734.922 106.76 735.248 107.007C735.573 107.248 735.827 107.555 736.01 107.926C736.199 108.291 736.293 108.688 736.293 109.118C736.293 109.606 736.215 110.036 736.059 110.408C735.902 110.772 735.678 111.079 735.384 111.326C735.091 111.567 734.74 111.749 734.329 111.873C733.925 111.997 733.476 112.059 732.981 112.059ZM742.312 112.264C741.726 112.264 741.188 112.17 740.7 111.981C740.211 111.785 739.788 111.492 739.43 111.101C739.078 110.704 738.804 110.206 738.609 109.606C738.413 109.001 738.316 108.287 738.316 107.467V106.255C738.316 105.376 738.417 104.623 738.619 103.998C738.827 103.366 739.11 102.852 739.469 102.454C739.827 102.057 740.234 101.764 740.69 101.575C741.146 101.386 741.625 101.292 742.126 101.292C742.706 101.292 743.214 101.386 743.651 101.575C744.093 101.764 744.465 102.05 744.764 102.435C745.064 102.819 745.289 103.304 745.439 103.891C745.595 104.47 745.673 105.157 745.673 105.952V106.861H738.97V105.845H744.589V105.571C744.576 104.881 744.478 104.294 744.295 103.812C744.12 103.324 743.849 102.953 743.484 102.698C743.126 102.438 742.673 102.308 742.126 102.308C741.729 102.308 741.361 102.383 741.022 102.532C740.69 102.676 740.4 102.904 740.153 103.216C739.912 103.529 739.726 103.936 739.596 104.438C739.465 104.939 739.4 105.545 739.4 106.255V107.467C739.4 108.118 739.469 108.678 739.605 109.147C739.749 109.616 739.951 110.007 740.211 110.32C740.478 110.632 740.794 110.867 741.159 111.023C741.524 111.173 741.928 111.248 742.371 111.248C742.905 111.248 743.377 111.153 743.787 110.965C744.204 110.776 744.572 110.492 744.891 110.115L745.458 110.838C745.276 111.098 745.041 111.336 744.755 111.551C744.468 111.766 744.126 111.938 743.729 112.069C743.331 112.199 742.859 112.264 742.312 112.264ZM749.073 103.519V116.124H747.989V101.487H748.995L749.073 103.519ZM755.2 106.284V107.271C755.2 108.125 755.125 108.864 754.975 109.489C754.825 110.115 754.604 110.632 754.31 111.043C754.017 111.453 753.662 111.759 753.245 111.961C752.829 112.163 752.35 112.264 751.809 112.264C751.282 112.264 750.816 112.173 750.412 111.99C750.015 111.808 749.673 111.551 749.386 111.219C749.099 110.88 748.871 110.486 748.702 110.036C748.533 109.58 748.415 109.079 748.35 108.532V105.278C748.428 104.679 748.552 104.135 748.722 103.646C748.897 103.158 749.125 102.738 749.406 102.386C749.692 102.034 750.031 101.764 750.422 101.575C750.819 101.386 751.275 101.292 751.79 101.292C752.33 101.292 752.812 101.386 753.236 101.575C753.659 101.764 754.017 102.057 754.31 102.454C754.61 102.852 754.832 103.369 754.975 104.008C755.125 104.64 755.2 105.398 755.2 106.284ZM754.125 107.271V106.284C754.125 105.6 754.073 105.014 753.968 104.526C753.864 104.031 753.705 103.62 753.49 103.295C753.281 102.969 753.011 102.728 752.679 102.571C752.353 102.409 751.969 102.327 751.526 102.327C751.07 102.327 750.682 102.412 750.363 102.581C750.044 102.744 749.777 102.962 749.562 103.236C749.347 103.509 749.178 103.809 749.054 104.135C748.93 104.454 748.839 104.77 748.78 105.083V108.786C748.884 109.222 749.047 109.629 749.269 110.007C749.49 110.378 749.787 110.678 750.158 110.906C750.529 111.134 750.992 111.248 751.545 111.248C751.988 111.248 752.369 111.17 752.689 111.013C753.014 110.851 753.281 110.606 753.49 110.281C753.705 109.948 753.864 109.535 753.968 109.04C754.073 108.545 754.125 107.955 754.125 107.271ZM758.893 101.487V112.059H757.799V101.487H758.893ZM764.726 101.487L760.632 107.222H758.512L758.385 106.157H760.173L763.378 101.487H764.726ZM763.7 112.059L760.075 107.066L760.769 106.157L765.107 112.059H763.7ZM772.269 110.163V104.408C772.269 103.913 772.184 103.513 772.015 103.207C771.846 102.894 771.598 102.666 771.272 102.523C770.947 102.379 770.54 102.308 770.051 102.308C769.608 102.308 769.214 102.399 768.869 102.581C768.524 102.757 768.253 103.005 768.058 103.324C767.862 103.636 767.765 103.998 767.765 104.408L766.68 104.399C766.68 103.988 766.762 103.597 766.925 103.226C767.087 102.855 767.319 102.526 767.618 102.239C767.918 101.946 768.276 101.715 768.693 101.546C769.116 101.376 769.589 101.292 770.11 101.292C770.735 101.292 771.292 101.392 771.781 101.594C772.269 101.796 772.65 102.129 772.924 102.591C773.204 103.054 773.344 103.666 773.344 104.428V109.841C773.344 110.206 773.367 110.584 773.412 110.974C773.464 111.365 773.536 111.684 773.627 111.932V112.059H772.484C772.412 111.831 772.357 111.538 772.318 111.18C772.285 110.821 772.269 110.483 772.269 110.163ZM772.504 105.894L772.523 106.812H770.637C770.129 106.812 769.683 106.867 769.299 106.978C768.914 107.089 768.592 107.248 768.331 107.457C768.077 107.665 767.885 107.916 767.755 108.209C767.625 108.496 767.56 108.822 767.56 109.186C767.56 109.655 767.635 110.04 767.784 110.339C767.941 110.632 768.162 110.851 768.449 110.994C768.742 111.131 769.09 111.199 769.494 111.199C770.022 111.199 770.491 111.092 770.901 110.877C771.312 110.662 771.647 110.378 771.908 110.027C772.168 109.675 772.338 109.3 772.416 108.903L772.709 109.558C772.644 109.851 772.523 110.157 772.347 110.476C772.171 110.789 771.943 111.082 771.663 111.355C771.383 111.622 771.051 111.841 770.667 112.01C770.282 112.179 769.849 112.264 769.367 112.264C768.787 112.264 768.279 112.153 767.843 111.932C767.407 111.71 767.068 111.378 766.827 110.935C766.592 110.486 766.475 109.932 766.475 109.274C766.475 108.786 766.56 108.336 766.729 107.926C766.898 107.515 767.149 107.157 767.481 106.851C767.814 106.545 768.231 106.31 768.732 106.148C769.234 105.978 769.817 105.894 770.481 105.894H772.504ZM789.925 97.8327V112.059H788.801V98.8781H782.206V112.059H781.082V97.8327H789.925ZM802.158 103.412V106.49C802.158 107.434 802.05 108.268 801.835 108.991C801.627 109.707 801.324 110.307 800.927 110.789C800.536 111.271 800.057 111.639 799.49 111.893C798.924 112.14 798.285 112.264 797.575 112.264C796.872 112.264 796.237 112.14 795.67 111.893C795.11 111.639 794.628 111.271 794.224 110.789C793.82 110.307 793.507 109.707 793.286 108.991C793.071 108.268 792.964 107.434 792.964 106.49V103.412C792.964 102.474 793.071 101.643 793.286 100.92C793.501 100.197 793.807 99.5947 794.204 99.1126C794.608 98.6306 795.09 98.2658 795.651 98.0183C796.217 97.7643 796.852 97.6372 797.556 97.6372C798.266 97.6372 798.904 97.7643 799.471 98.0183C800.038 98.2658 800.523 98.6306 800.927 99.1126C801.331 99.5947 801.637 100.197 801.845 100.92C802.054 101.643 802.158 102.474 802.158 103.412ZM801.054 106.49V103.392C801.054 102.611 800.976 101.93 800.819 101.35C800.669 100.764 800.448 100.275 800.155 99.8845C799.862 99.4937 799.497 99.2006 799.061 99.0052C798.624 98.8097 798.123 98.712 797.556 98.712C797.009 98.712 796.517 98.8097 796.08 99.0052C795.651 99.2006 795.286 99.4937 794.986 99.8845C794.693 100.275 794.468 100.764 794.312 101.35C794.156 101.93 794.077 102.611 794.077 103.392V106.49C794.077 107.278 794.156 107.965 794.312 108.551C794.468 109.131 794.696 109.619 794.996 110.017C795.302 110.408 795.67 110.701 796.1 110.896C796.536 111.092 797.028 111.189 797.575 111.189C798.142 111.189 798.64 111.092 799.07 110.896C799.507 110.701 799.872 110.408 800.165 110.017C800.458 109.619 800.679 109.131 800.829 108.551C800.979 107.965 801.054 107.278 801.054 106.49Z" fill="#32ADE6"/>
<path d="M747.253 48.0248L741.55 42.3218L742.976 40.8961L747.253 45.1733L756.433 35.9935L757.858 37.4193L747.253 48.0248Z" fill="#F2F4FA"/>
<circle cx="924.296" cy="42.5223" r="42.5223" fill="#FF3B30"/>
<circle cx="924.296" cy="42.5223" r="40.5213" fill="#F2F4FA"/>
<circle cx="924.296" cy="42.5223" r="37.5197" fill="#FF3B30"/>
<path d="M865.459 98.6925L861.365 112.059H860.212L864.736 97.8327H865.527L865.459 98.6925ZM869.142 112.059L865.039 98.6925L864.99 97.8327H865.771L870.295 112.059H869.142ZM868.497 107.037V108.082H862.088V107.037H868.497ZM878.249 106.206V107.222H873.099V106.206H878.249ZM873.363 101.487V112.059H872.279V101.487H873.363ZM879.089 101.487V112.059H878.014V101.487H879.089ZM885.323 101.487V112.059H884.238V101.487H885.323ZM888.508 101.487V102.493H881.16V101.487H888.508ZM891.625 110.134L896.285 101.487H897.38V112.059H896.285V103.412L891.625 112.059H890.55V101.487H891.625V110.134ZM906.359 101.487V102.513H901.308V101.487H906.359ZM901.523 101.487V112.059H900.438V101.487H901.523ZM907.268 101.487V112.059H906.173V101.487H907.268ZM916.257 101.487V102.513H911.801V101.487H916.257ZM917.166 101.487V112.059H916.071V101.487H917.166ZM911.518 101.487H912.603L912.397 106.45C912.365 107.258 912.309 107.968 912.231 108.58C912.16 109.193 912.055 109.72 911.919 110.163C911.788 110.606 911.622 110.968 911.42 111.248C911.225 111.521 910.987 111.727 910.707 111.863C910.434 111.994 910.111 112.059 909.74 112.059H909.349V110.994L909.662 110.974C909.896 110.961 910.098 110.903 910.267 110.798C910.443 110.694 910.593 110.528 910.717 110.3C910.847 110.072 910.955 109.773 911.039 109.401C911.124 109.03 911.189 108.577 911.235 108.043C911.287 107.509 911.326 106.877 911.352 106.148L911.518 101.487ZM925.529 110.163V104.408C925.529 103.913 925.445 103.513 925.275 103.207C925.106 102.894 924.858 102.666 924.533 102.523C924.207 102.379 923.8 102.308 923.311 102.308C922.868 102.308 922.474 102.399 922.129 102.581C921.784 102.757 921.514 103.005 921.318 103.324C921.123 103.636 921.025 103.998 921.025 104.408L919.94 104.399C919.94 103.988 920.022 103.597 920.185 103.226C920.348 102.855 920.579 102.526 920.878 102.239C921.178 101.946 921.536 101.715 921.953 101.546C922.377 101.376 922.849 101.292 923.37 101.292C923.995 101.292 924.552 101.392 925.041 101.594C925.529 101.796 925.91 102.129 926.184 102.591C926.464 103.054 926.604 103.666 926.604 104.428V109.841C926.604 110.206 926.627 110.584 926.673 110.974C926.725 111.365 926.796 111.684 926.887 111.932V112.059H925.744C925.673 111.831 925.617 111.538 925.578 111.18C925.546 110.821 925.529 110.483 925.529 110.163ZM925.764 105.894L925.783 106.812H923.898C923.39 106.812 922.943 106.867 922.559 106.978C922.175 107.089 921.852 107.248 921.592 107.457C921.338 107.665 921.146 107.916 921.015 108.209C920.885 108.496 920.82 108.822 920.82 109.186C920.82 109.655 920.895 110.04 921.045 110.339C921.201 110.632 921.422 110.851 921.709 110.994C922.002 111.131 922.351 111.199 922.754 111.199C923.282 111.199 923.751 111.092 924.161 110.877C924.572 110.662 924.907 110.378 925.168 110.027C925.428 109.675 925.598 109.3 925.676 108.903L925.969 109.558C925.904 109.851 925.783 110.157 925.607 110.476C925.432 110.789 925.204 111.082 924.924 111.355C924.643 111.622 924.311 111.841 923.927 112.01C923.543 112.179 923.109 112.264 922.627 112.264C922.048 112.264 921.54 112.153 921.103 111.932C920.667 111.71 920.328 111.378 920.087 110.935C919.853 110.486 919.735 109.932 919.735 109.274C919.735 108.786 919.82 108.336 919.989 107.926C920.159 107.515 920.409 107.157 920.742 106.851C921.074 106.545 921.491 106.31 921.992 106.148C922.494 105.978 923.077 105.894 923.741 105.894H925.764ZM935.134 101.487V102.513H930.727V112.059H929.643V101.487H935.134ZM938.212 110.134L942.872 101.487H943.967V112.059H942.872V103.412L938.212 112.059H937.137V101.487H938.212V110.134ZM952.321 110.163V104.408C952.321 103.913 952.236 103.513 952.067 103.207C951.897 102.894 951.65 102.666 951.324 102.523C950.998 102.379 950.591 102.308 950.103 102.308C949.66 102.308 949.266 102.399 948.921 102.581C948.575 102.757 948.305 103.005 948.11 103.324C947.914 103.636 947.816 103.998 947.816 104.408L946.732 104.399C946.732 103.988 946.813 103.597 946.976 103.226C947.139 102.855 947.37 102.526 947.67 102.239C947.97 101.946 948.328 101.715 948.745 101.546C949.168 101.376 949.64 101.292 950.161 101.292C950.787 101.292 951.344 101.392 951.832 101.594C952.321 101.796 952.702 102.129 952.975 102.591C953.255 103.054 953.396 103.666 953.396 104.428V109.841C953.396 110.206 953.418 110.584 953.464 110.974C953.516 111.365 953.588 111.684 953.679 111.932V112.059H952.536C952.464 111.831 952.409 111.538 952.37 111.18C952.337 110.821 952.321 110.483 952.321 110.163ZM952.555 105.894L952.575 106.812H950.689C950.181 106.812 949.735 106.867 949.35 106.978C948.966 107.089 948.644 107.248 948.383 107.457C948.129 107.665 947.937 107.916 947.807 108.209C947.676 108.496 947.611 108.822 947.611 109.186C947.611 109.655 947.686 110.04 947.836 110.339C947.992 110.632 948.214 110.851 948.5 110.994C948.794 111.131 949.142 111.199 949.546 111.199C950.073 111.199 950.542 111.092 950.953 110.877C951.363 110.662 951.699 110.378 951.959 110.027C952.22 109.675 952.389 109.3 952.467 108.903L952.76 109.558C952.695 109.851 952.575 110.157 952.399 110.476C952.223 110.789 951.995 111.082 951.715 111.355C951.435 111.622 951.103 111.841 950.718 112.01C950.334 112.179 949.901 112.264 949.419 112.264C948.839 112.264 948.331 112.153 947.895 111.932C947.458 111.71 947.119 111.378 946.878 110.935C946.644 110.486 946.527 109.932 946.527 109.274C946.527 108.786 946.611 108.336 946.781 107.926C946.95 107.515 947.201 107.157 947.533 106.851C947.865 106.545 948.282 106.31 948.784 106.148C949.285 105.978 949.868 105.894 950.533 105.894H952.555ZM959.444 101.487V112.059H958.359V101.487H959.444ZM962.629 101.487V102.493H955.281V101.487H962.629Z" fill="#FF3B30"/>
<path d="M924.797 43.4226L919.895 48.3252C919.711 48.5086 919.478 48.6003 919.194 48.6003C918.911 48.6003 918.677 48.5086 918.494 48.3252C918.311 48.1418 918.219 47.9083 918.219 47.6248C918.219 47.3413 918.311 47.1079 918.494 46.9245L923.397 42.0219L918.494 37.1193C918.311 36.9359 918.219 36.7024 918.219 36.4189C918.219 36.1355 918.311 35.902 918.494 35.7186C918.677 35.5351 918.911 35.4434 919.194 35.4434C919.478 35.4434 919.711 35.5351 919.895 35.7186L924.797 40.6212L929.7 35.7186C929.883 35.5351 930.117 35.4434 930.4 35.4434C930.684 35.4434 930.917 35.5351 931.101 35.7186C931.284 35.902 931.376 36.1355 931.376 36.4189C931.376 36.7024 931.284 36.9359 931.101 37.1193L926.198 42.0219L931.101 46.9245C931.284 47.1079 931.376 47.3413 931.376 47.6248C931.376 47.9083 931.284 48.1418 931.101 48.3252C930.917 48.5086 930.684 48.6003 930.4 48.6003C930.117 48.6003 929.883 48.5086 929.7 48.3252L924.797 43.4226Z" fill="#F2F4FA"/>
<circle cx="573.112" cy="42.5223" r="37.5197" fill="#FF3B30"/>
<path d="M518.251 104.203V105.249H511.148V104.203H518.251ZM511.382 97.8327V112.059H510.268V97.8327H511.382ZM519.179 97.8327V112.059H518.055V97.8327H519.179ZM521.934 107.33V106.226C521.934 105.425 522.026 104.718 522.208 104.105C522.397 103.493 522.661 102.979 522.999 102.562C523.345 102.145 523.752 101.829 524.221 101.614C524.696 101.399 525.217 101.292 525.784 101.292C526.37 101.292 526.898 101.399 527.367 101.614C527.842 101.829 528.25 102.145 528.588 102.562C528.934 102.979 529.197 103.493 529.38 104.105C529.569 104.718 529.663 105.425 529.663 106.226V107.33C529.663 108.125 529.569 108.828 529.38 109.44C529.197 110.053 528.934 110.57 528.588 110.994C528.243 111.411 527.833 111.727 527.357 111.942C526.888 112.157 526.37 112.264 525.804 112.264C525.23 112.264 524.706 112.157 524.231 111.942C523.762 111.727 523.354 111.411 523.009 110.994C522.664 110.57 522.397 110.053 522.208 109.44C522.026 108.828 521.934 108.125 521.934 107.33ZM523.019 106.226V107.33C523.019 107.929 523.081 108.47 523.205 108.952C523.328 109.434 523.508 109.847 523.742 110.193C523.983 110.531 524.276 110.792 524.621 110.974C524.967 111.157 525.361 111.248 525.804 111.248C526.273 111.248 526.68 111.157 527.025 110.974C527.377 110.792 527.667 110.531 527.895 110.193C528.129 109.847 528.302 109.434 528.412 108.952C528.53 108.47 528.588 107.929 528.588 107.33V106.226C528.588 105.626 528.526 105.089 528.403 104.614C528.279 104.132 528.093 103.721 527.846 103.382C527.605 103.037 527.312 102.773 526.966 102.591C526.628 102.402 526.234 102.308 525.784 102.308C525.354 102.308 524.967 102.402 524.621 102.591C524.276 102.773 523.983 103.037 523.742 103.382C523.508 103.721 523.328 104.132 523.205 104.614C523.081 105.089 523.019 105.626 523.019 106.226ZM533.249 103.519V116.124H532.164V101.487H533.171L533.249 103.519ZM539.375 106.284V107.271C539.375 108.125 539.3 108.864 539.151 109.489C539.001 110.115 538.779 110.632 538.486 111.043C538.193 111.453 537.838 111.759 537.421 111.961C537.004 112.163 536.525 112.264 535.985 112.264C535.457 112.264 534.991 112.173 534.588 111.99C534.19 111.808 533.848 111.551 533.562 111.219C533.275 110.88 533.047 110.486 532.878 110.036C532.708 109.58 532.591 109.079 532.526 108.532V105.278C532.604 104.679 532.728 104.135 532.897 103.646C533.073 103.158 533.301 102.738 533.581 102.386C533.868 102.034 534.207 101.764 534.597 101.575C534.995 101.386 535.451 101.292 535.965 101.292C536.506 101.292 536.988 101.386 537.411 101.575C537.835 101.764 538.193 102.057 538.486 102.454C538.786 102.852 539.007 103.369 539.151 104.008C539.3 104.64 539.375 105.398 539.375 106.284ZM538.3 107.271V106.284C538.3 105.6 538.248 105.014 538.144 104.526C538.04 104.031 537.88 103.62 537.665 103.295C537.457 102.969 537.187 102.728 536.854 102.571C536.529 102.409 536.144 102.327 535.701 102.327C535.245 102.327 534.858 102.412 534.539 102.581C534.22 102.744 533.952 102.962 533.738 103.236C533.523 103.509 533.353 103.809 533.229 104.135C533.106 104.454 533.014 104.77 532.956 105.083V108.786C533.06 109.222 533.223 109.629 533.444 110.007C533.666 110.378 533.962 110.678 534.334 110.906C534.705 111.134 535.167 111.248 535.721 111.248C536.164 111.248 536.545 111.17 536.864 111.013C537.19 110.851 537.457 110.606 537.665 110.281C537.88 109.948 538.04 109.535 538.144 109.04C538.248 108.545 538.3 107.955 538.3 107.271ZM546.86 110.437L550.289 101.487H551.364L547.241 112.059H546.469L542.365 101.487H543.43L546.86 110.437ZM543.098 101.487V112.059H542.013V101.487H543.098ZM550.543 112.059V101.487H551.628V112.059H550.543ZM559.982 110.163V104.408C559.982 103.913 559.897 103.513 559.728 103.207C559.558 102.894 559.311 102.666 558.985 102.523C558.659 102.379 558.252 102.308 557.764 102.308C557.321 102.308 556.927 102.399 556.582 102.581C556.236 102.757 555.966 103.005 555.771 103.324C555.575 103.636 555.477 103.998 555.477 104.408L554.393 104.399C554.393 103.988 554.474 103.597 554.637 103.226C554.8 102.855 555.031 102.526 555.331 102.239C555.631 101.946 555.989 101.715 556.406 101.546C556.829 101.376 557.301 101.292 557.822 101.292C558.448 101.292 559.005 101.392 559.493 101.594C559.982 101.796 560.363 102.129 560.636 102.591C560.917 103.054 561.057 103.666 561.057 104.428V109.841C561.057 110.206 561.079 110.584 561.125 110.974C561.177 111.365 561.249 111.684 561.34 111.932V112.059H560.197C560.125 111.831 560.07 111.538 560.031 111.18C559.998 110.821 559.982 110.483 559.982 110.163ZM560.216 105.894L560.236 106.812H558.35C557.842 106.812 557.396 106.867 557.011 106.978C556.627 107.089 556.305 107.248 556.044 107.457C555.79 107.665 555.598 107.916 555.468 108.209C555.337 108.496 555.272 108.822 555.272 109.186C555.272 109.655 555.347 110.04 555.497 110.339C555.653 110.632 555.875 110.851 556.161 110.994C556.455 111.131 556.803 111.199 557.207 111.199C557.734 111.199 558.203 111.092 558.614 110.877C559.024 110.662 559.36 110.378 559.62 110.027C559.881 109.675 560.05 109.3 560.128 108.903L560.421 109.558C560.356 109.851 560.236 110.157 560.06 110.476C559.884 110.789 559.656 111.082 559.376 111.355C559.096 111.622 558.764 111.841 558.379 112.01C557.995 112.179 557.562 112.264 557.08 112.264C556.5 112.264 555.992 112.153 555.556 111.932C555.119 111.71 554.78 111.378 554.539 110.935C554.305 110.486 554.188 109.932 554.188 109.274C554.188 108.786 554.272 108.336 554.442 107.926C554.611 107.515 554.862 107.157 555.194 106.851C555.526 106.545 555.943 106.31 556.445 106.148C556.946 105.978 557.529 105.894 558.194 105.894H560.216ZM565.19 101.487V112.059H564.095V101.487H565.19ZM571.023 101.487L566.929 107.222H564.809L564.682 106.157H566.47L569.674 101.487H571.023ZM569.997 112.059L566.372 107.066L567.066 106.157L571.404 112.059H569.997ZM572.567 107.33V106.226C572.567 105.425 572.658 104.718 572.84 104.105C573.029 103.493 573.293 102.979 573.632 102.562C573.977 102.145 574.384 101.829 574.853 101.614C575.328 101.399 575.849 101.292 576.416 101.292C577.002 101.292 577.53 101.399 577.999 101.614C578.475 101.829 578.882 102.145 579.22 102.562C579.566 102.979 579.829 103.493 580.012 104.105C580.201 104.718 580.295 105.425 580.295 106.226V107.33C580.295 108.125 580.201 108.828 580.012 109.44C579.829 110.053 579.566 110.57 579.22 110.994C578.875 111.411 578.465 111.727 577.989 111.942C577.52 112.157 577.002 112.264 576.436 112.264C575.863 112.264 575.338 112.157 574.863 111.942C574.394 111.727 573.987 111.411 573.641 110.994C573.296 110.57 573.029 110.053 572.84 109.44C572.658 108.828 572.567 108.125 572.567 107.33ZM573.651 106.226V107.33C573.651 107.929 573.713 108.47 573.837 108.952C573.96 109.434 574.14 109.847 574.374 110.193C574.615 110.531 574.908 110.792 575.253 110.974C575.599 111.157 575.993 111.248 576.436 111.248C576.905 111.248 577.312 111.157 577.657 110.974C578.009 110.792 578.299 110.531 578.527 110.193C578.761 109.847 578.934 109.434 579.045 108.952C579.162 108.47 579.22 107.929 579.22 107.33V106.226C579.22 105.626 579.159 105.089 579.035 104.614C578.911 104.132 578.725 103.721 578.478 103.382C578.237 103.037 577.944 102.773 577.598 102.591C577.26 102.402 576.866 102.308 576.416 102.308C575.986 102.308 575.599 102.402 575.253 102.591C574.908 102.773 574.615 103.037 574.374 103.382C574.14 103.721 573.96 104.132 573.837 104.614C573.713 105.089 573.651 105.626 573.651 106.226ZM588.854 106.206V107.222H583.705V106.206H588.854ZM583.969 101.487V112.059H582.884V101.487H583.969ZM589.695 101.487V112.059H588.62V101.487H589.695ZM595.928 101.487V112.059H594.844V101.487H595.928ZM599.114 101.487V102.493H591.766V101.487H599.114ZM602.152 103.519V116.124H601.068V101.487H602.074L602.152 103.519ZM608.279 106.284V107.271C608.279 108.125 608.204 108.864 608.054 109.489C607.904 110.115 607.683 110.632 607.389 111.043C607.096 111.453 606.741 111.759 606.324 111.961C605.908 112.163 605.429 112.264 604.888 112.264C604.361 112.264 603.895 112.173 603.491 111.99C603.094 111.808 602.752 111.551 602.465 111.219C602.178 110.88 601.95 110.486 601.781 110.036C601.612 109.58 601.494 109.079 601.429 108.532V105.278C601.507 104.679 601.631 104.135 601.801 103.646C601.976 103.158 602.204 102.738 602.485 102.386C602.771 102.034 603.11 101.764 603.501 101.575C603.898 101.386 604.354 101.292 604.869 101.292C605.409 101.292 605.891 101.386 606.315 101.575C606.738 101.764 607.096 102.057 607.389 102.454C607.689 102.852 607.911 103.369 608.054 104.008C608.204 104.64 608.279 105.398 608.279 106.284ZM607.204 107.271V106.284C607.204 105.6 607.152 105.014 607.048 104.526C606.943 104.031 606.784 103.62 606.569 103.295C606.36 102.969 606.09 102.728 605.758 102.571C605.432 102.409 605.048 102.327 604.605 102.327C604.149 102.327 603.761 102.412 603.442 102.581C603.123 102.744 602.856 102.962 602.641 103.236C602.426 103.509 602.257 103.809 602.133 104.135C602.009 104.454 601.918 104.77 601.859 105.083V108.786C601.963 109.222 602.126 109.629 602.348 110.007C602.569 110.378 602.866 110.678 603.237 110.906C603.608 111.134 604.071 111.248 604.624 111.248C605.067 111.248 605.448 111.17 605.768 111.013C606.093 110.851 606.36 110.606 606.569 110.281C606.784 109.948 606.943 109.535 607.048 109.04C607.152 108.545 607.204 107.955 607.204 107.271ZM610.399 107.33V106.226C610.399 105.425 610.49 104.718 610.672 104.105C610.861 103.493 611.125 102.979 611.464 102.562C611.809 102.145 612.216 101.829 612.685 101.614C613.161 101.399 613.682 101.292 614.249 101.292C614.835 101.292 615.362 101.399 615.831 101.614C616.307 101.829 616.714 102.145 617.053 102.562C617.398 102.979 617.662 103.493 617.844 104.105C618.033 104.718 618.128 105.425 618.128 106.226V107.33C618.128 108.125 618.033 108.828 617.844 109.44C617.662 110.053 617.398 110.57 617.053 110.994C616.708 111.411 616.297 111.727 615.822 111.942C615.353 112.157 614.835 112.264 614.268 112.264C613.695 112.264 613.171 112.157 612.695 111.942C612.226 111.727 611.819 111.411 611.474 110.994C611.128 110.57 610.861 110.053 610.672 109.44C610.49 108.828 610.399 108.125 610.399 107.33ZM611.483 106.226V107.33C611.483 107.929 611.545 108.47 611.669 108.952C611.793 109.434 611.972 109.847 612.206 110.193C612.447 110.531 612.741 110.792 613.086 110.974C613.431 111.157 613.825 111.248 614.268 111.248C614.737 111.248 615.144 111.157 615.489 110.974C615.841 110.792 616.131 110.531 616.359 110.193C616.594 109.847 616.766 109.434 616.877 108.952C616.994 108.47 617.053 107.929 617.053 107.33V106.226C617.053 105.626 616.991 105.089 616.867 104.614C616.743 104.132 616.558 103.721 616.31 103.382C616.069 103.037 615.776 102.773 615.431 102.591C615.092 102.402 614.698 102.308 614.249 102.308C613.819 102.308 613.431 102.402 613.086 102.591C612.741 102.773 612.447 103.037 612.206 103.382C611.972 103.721 611.793 104.132 611.669 104.614C611.545 105.089 611.483 105.626 611.483 106.226ZM626.491 101.487V102.513H622.036V101.487H626.491ZM627.4 101.487V112.059H626.306V101.487H627.4ZM621.753 101.487H622.837L622.632 106.45C622.599 107.258 622.544 107.968 622.466 108.58C622.394 109.193 622.29 109.72 622.153 110.163C622.023 110.606 621.857 110.968 621.655 111.248C621.459 111.521 621.222 111.727 620.942 111.863C620.668 111.994 620.346 112.059 619.974 112.059H619.583V110.994L619.896 110.974C620.131 110.961 620.332 110.903 620.502 110.798C620.678 110.694 620.828 110.528 620.951 110.3C621.082 110.072 621.189 109.773 621.274 109.401C621.358 109.03 621.424 108.577 621.469 108.043C621.521 107.509 621.56 106.877 621.586 106.148L621.753 101.487ZM631.22 105.317H634.073C634.777 105.317 635.37 105.464 635.852 105.757C636.334 106.043 636.702 106.441 636.956 106.949C637.21 107.45 637.337 108.024 637.337 108.668C637.337 109.15 637.262 109.597 637.112 110.007C636.969 110.417 636.76 110.779 636.487 111.092C636.213 111.398 635.875 111.635 635.471 111.805C635.067 111.974 634.601 112.059 634.073 112.059H630.497V101.487H631.582V111.043H634.073C634.601 111.043 635.021 110.932 635.334 110.711C635.653 110.489 635.884 110.199 636.028 109.841C636.171 109.476 636.243 109.092 636.243 108.688C636.243 108.304 636.171 107.932 636.028 107.574C635.884 107.209 635.653 106.913 635.334 106.685C635.021 106.45 634.601 106.333 634.073 106.333H631.22V105.317Z" fill="#FF3B30"/>
<path d="M573.613 43.4226L568.71 48.3252C568.527 48.5086 568.293 48.6003 568.01 48.6003C567.726 48.6003 567.493 48.5086 567.309 48.3252C567.126 48.1418 567.034 47.9083 567.034 47.6248C567.034 47.3413 567.126 47.1079 567.309 46.9245L572.212 42.0219L567.309 37.1193C567.126 36.9359 567.034 36.7024 567.034 36.4189C567.034 36.1355 567.126 35.902 567.309 35.7186C567.493 35.5351 567.726 35.4434 568.01 35.4434C568.293 35.4434 568.527 35.5351 568.71 35.7186L573.613 40.6212L578.515 35.7186C578.699 35.5351 578.932 35.4434 579.216 35.4434C579.499 35.4434 579.733 35.5351 579.916 35.7186C580.1 35.902 580.191 36.1355 580.191 36.4189C580.191 36.7024 580.1 36.9359 579.916 37.1193L575.013 42.0219L579.916 46.9245C580.1 47.1079 580.191 47.3413 580.191 47.6248C580.191 47.9083 580.1 48.1418 579.916 48.3252C579.733 48.5086 579.499 48.6003 579.216 48.6003C578.932 48.6003 578.699 48.5086 578.515 48.3252L573.613 43.4226Z" fill="#F2F4FA"/>
</svg>
