<svg width="25" height="25" viewBox="0 0 25 25" fill="none" xmlns="http://www.w3.org/2000/svg">
<path d="M3.12512 12.5C3.12512 13.7312 3.36761 14.9502 3.83875 16.0877C4.30988 17.2251 5.00043 18.2586 5.87097 19.1291C6.74151 19.9996 7.77499 20.6902 8.91241 21.1613C10.0498 21.6325 11.2689 21.8749 12.5 21.8749C13.7312 21.8749 14.9502 21.6325 16.0877 21.1613C17.2251 20.6902 18.2586 19.9996 19.1291 19.1291C19.9996 18.2586 20.6902 17.2251 21.1613 16.0877C21.6325 14.9502 21.8749 13.7312 21.8749 12.5C21.8749 10.0137 20.8872 7.62911 19.1291 5.87097C17.371 4.11283 14.9864 3.12512 12.5 3.12512C10.0137 3.12512 7.62911 4.11283 5.87097 5.87097C4.11283 7.62911 3.12512 10.0137 3.12512 12.5Z" stroke="#566F9E" stroke-width="2" stroke-linecap="round" stroke-linejoin="round"/>
<path d="M12.5005 7.29163V12.4999L15.6255 15.6249" stroke="#566F9E" stroke-width="2" stroke-linecap="round" stroke-linejoin="round"/>
</svg>
