<svg width="25" height="25" viewBox="0 0 25 25" fill="none" xmlns="http://www.w3.org/2000/svg">
<path d="M12.5001 0.835478C8.80242 0.835478 5.80479 3.8331 5.80479 7.53082C5.80748 8.66607 6.09883 9.78212 6.37022 10.278L12.5001 24.1645L18.3586 10.7739H18.3555C18.9058 9.78151 19.1948 8.66555 19.1954 7.53082C19.1955 3.8331 16.1979 0.835478 12.5001 0.835478ZM12.5001 4.1831C12.9398 4.1831 13.3751 4.26969 13.7812 4.43793C14.1874 4.60617 14.5564 4.85277 14.8673 5.16363C15.1782 5.4745 15.4247 5.84355 15.593 6.24971C15.7612 6.65588 15.8478 7.0912 15.8478 7.53082C15.8478 8.41867 15.4951 9.27015 14.8673 9.89795C14.2395 10.5258 13.388 10.8784 12.5001 10.8784C11.6123 10.8784 10.7608 10.5258 10.133 9.89795C9.50521 9.27015 9.15251 8.41867 9.15251 7.53082C9.15251 6.64298 9.50521 5.7915 10.133 5.1637C10.7608 4.53589 11.6123 4.1832 12.5001 4.1832V4.1831Z" fill="#566F9E"/>
</svg>
