<svg width="24" height="24" viewBox="0 0 24 24" fill="none" xmlns="http://www.w3.org/2000/svg">
<g clip-path="url(#clip0_134_365)">
<path d="M3.49988 7.99978C3.50008 7.05171 3.74535 6.11979 4.21189 5.29446C4.67842 4.46912 5.35039 3.7784 6.16257 3.28933C6.97475 2.80025 7.89957 2.52942 8.84728 2.50313C9.79498 2.47685 10.7334 2.69598 11.5714 3.13928C12.4095 3.58258 13.1187 4.23499 13.6303 5.03319C14.1419 5.83139 14.4384 6.74828 14.4912 7.69488C14.5439 8.64148 14.3511 9.58565 13.9314 10.4358C13.5117 11.2859 12.8793 12.013 12.0957 12.5467C13.7832 13.1656 15.2469 14.2754 16.2983 15.7332C17.3498 17.1909 17.9409 18.93 17.9956 20.7266C17.9933 20.9203 17.9162 21.1056 17.7805 21.2438C17.6447 21.382 17.4609 21.4624 17.2672 21.4682C17.0736 21.474 16.8852 21.4048 16.7414 21.275C16.5977 21.1451 16.5096 20.9648 16.4957 20.7716C16.4361 18.8231 15.6202 16.9743 14.2209 15.6171C12.8215 14.2598 10.9487 13.5008 8.99929 13.5008C7.04987 13.5008 5.17705 14.2598 3.7777 15.6171C2.37836 16.9743 1.56246 18.8231 1.50291 20.7716C1.4929 20.9674 1.40659 21.1515 1.26248 21.2845C1.11836 21.4175 0.9279 21.4887 0.731898 21.4829C0.535897 21.4772 0.349943 21.3949 0.213875 21.2537C0.0778063 21.1125 0.00244561 20.9237 0.00393722 20.7276C0.0584877 18.9308 0.649533 17.1915 1.70099 15.7336C2.75246 14.2756 4.21621 13.1657 5.90384 12.5467C5.16293 12.0421 4.55659 11.364 4.1376 10.5716C3.71862 9.77909 3.49969 8.8962 3.49988 7.99978ZM8.99979 3.99985C7.93894 3.99985 6.92154 4.42127 6.17141 5.1714C5.42127 5.92154 4.99985 6.93893 4.99985 7.99978C4.99985 9.06063 5.42127 10.078 6.17141 10.8282C6.92154 11.5783 7.93894 11.9997 8.99979 11.9997C10.0606 11.9997 11.078 11.5783 11.8282 10.8282C12.5783 10.078 12.9997 9.06063 12.9997 7.99978C12.9997 6.93893 12.5783 5.92154 11.8282 5.1714C11.078 4.42127 10.0606 3.99985 8.99979 3.99985ZM17.2897 7.99978C17.1423 7.99978 16.9977 8.00978 16.8557 8.02978C16.7565 8.04753 16.6548 8.04514 16.5566 8.02273C16.4584 8.00032 16.3658 7.95837 16.2841 7.89937C16.2025 7.84037 16.1336 7.76554 16.0815 7.67933C16.0294 7.59312 15.9953 7.4973 15.981 7.3976C15.9668 7.2979 15.9728 7.19634 15.9986 7.099C16.0245 7.00166 16.0697 6.91052 16.1315 6.83103C16.1934 6.75153 16.2706 6.68531 16.3586 6.63631C16.4466 6.5873 16.5435 6.55652 16.6437 6.54581C17.6382 6.40201 18.6524 6.593 19.5265 7.08872C20.4006 7.58444 21.0851 8.35674 21.4722 9.28409C21.8593 10.2114 21.9271 11.2412 21.6648 12.2113C21.4026 13.1813 20.8252 14.0367 20.0236 14.6427C21.202 15.1703 22.2025 16.0277 22.9044 17.1113C23.6064 18.1949 23.9798 19.4585 23.9795 20.7496C23.9795 20.9485 23.9005 21.1392 23.7599 21.2799C23.6192 21.4205 23.4285 21.4996 23.2296 21.4996C23.0306 21.4996 22.8399 21.4205 22.6992 21.2799C22.5586 21.1392 22.4796 20.9485 22.4796 20.7496C22.4799 19.6336 22.1206 18.5473 21.4548 17.6517C20.7891 16.7561 19.8523 16.0989 18.7836 15.7777L18.2496 15.6177V13.9417L18.6596 13.7327C19.2674 13.4248 19.7536 12.9212 20.0399 12.303C20.3262 11.6848 20.3958 10.9881 20.2374 10.3255C20.0791 9.66289 19.7021 9.07298 19.1672 8.651C18.6324 8.22902 17.9709 7.9996 17.2897 7.99978Z" fill="#566F9E"/>
</g>
<defs>
<clipPath id="clip0_134_365">
<rect width="23.943" height="23.943" fill="white" transform="scale(1.00237)"/>
</clipPath>
</defs>
</svg>
